<?xml version="1.0" encoding="utf-8"?>
<!-- Generator: Adobe Illustrator 22.1.0, SVG Export Plug-In . SVG Version: 6.00 Build 0)  -->
<svg version="1.1" id="Layer_1" xmlns="http://www.w3.org/2000/svg" xmlns:xlink="http://www.w3.org/1999/xlink" x="0px" y="0px"
	 viewBox="0 0 141.7 141.7" style="enable-background:new 0 0 141.7 141.7;" xml:space="preserve">
<style type="text/css">
	.st0{fill:#70D6C7;}
</style>
<g>
	<path class="st0" d="M26.4,89.7c0.1,0,0.2-0.1,0.2-0.1C26.5,89.6,26.5,89.7,26.4,89.7z"/>
	<path class="st0" d="M20.2,107.4c-0.3,0-0.5,0.1-0.8,0.1C19.6,107.5,19.9,107.5,20.2,107.4z"/>
	<path class="st0" d="M24,106.6c-0.3,0.1-0.6,0.1-0.9,0.2C23.4,106.8,23.7,106.7,24,106.6z"/>
	<path class="st0" d="M24.5,108.9c-0.1,0-0.3,0.1-0.4,0.1C24.3,109,24.4,108.9,24.5,108.9z"/>
	<path class="st0" d="M14,107.3c-0.2,0-0.3-0.1-0.5-0.1C13.7,107.3,13.9,107.3,14,107.3z"/>
	<path class="st0" d="M26,89.9L26,89.9C25.9,90,26,90,26,89.9z"/>
	<path class="st0" d="M14.4,107.4c0.1,0.1,0.2,0.1,0.2,0.1C14.6,107.4,14.5,107.4,14.4,107.4z"/>
	<path class="st0" d="M25,108.7c-0.1,0-0.2,0.1-0.3,0.1C24.8,108.8,25,108.7,25,108.7z"/>
	<path class="st0" d="M23.9,109.1c-0.2,0-0.5,0.1-0.7,0.2C23.4,109.2,23.7,109.2,23.9,109.1z"/>
	<path class="st0" d="M78.6,71.3l-0.2,0.1v0.1l-0.2,0.1c0,0-0.2,0.1-0.3,0.6c0,0,0,0,0,0.1C78.1,71.9,78.4,71.6,78.6,71.3L78.6,71.3
		z"/>
	<path class="st0" d="M25.5,108.5c-0.1,0-0.2,0.1-0.3,0.1C25.3,108.6,25.4,108.6,25.5,108.5z"/>
	<path class="st0" d="M81.2,68.7c0.1-0.2,0.3-0.5,1.3-1.3l-0.1-0.3h0.3h0.2c0.6-0.7,1.3-1.3,2.2-1.9l0.2-0.1
		c0.5-1.5,0.6-2.3,0.5-2.7h-0.1l-0.6,0.2l-0.2,0.1l-0.2,0.2v-0.1c0,0.1-0.2,0.3-0.4,0.5l-0.1,0.1h-0.1H84c-0.1,0.2-0.3,0.5-0.9,0.9
		l-2.6,3.1l0.1,0.2l-0.2,0.1l0.1,0.3l-0.2-0.1L80.2,68L80,68.1h-0.1l0.2,0.2v0.1v0.1l0.1,0.2L80,68.8c-0.1,0-0.3,0.1-0.4,0.3
		l-0.2,0.3v-0.1c-0.1,0.2-0.1,0.4,0,0.6V70l-0.1,0.1L79,70.5l-0.3,0.3v-0.1l-0.1,0.1c0,0.1,0.1,0.1,0.1,0.2l0.1,0.1c0,0,0,0,0,0
		C78.8,70.9,79.2,70.4,81.2,68.7z"/>
	<polygon class="st0" points="63.1,76 63,76 63.1,76.1 	"/>
	<polygon class="st0" points="80.1,67.9 80.1,68 80.3,67.9 80.2,67.9 	"/>
	<path class="st0" d="M31.3,106.6c-0.2,0.1-0.4,0.1-0.6,0.2C30.9,106.8,31.1,106.7,31.3,106.6z"/>
	<path class="st0" d="M33.5,105.7c-0.1,0-0.1,0.1-0.2,0.1C33.3,105.8,33.4,105.8,33.5,105.7z"/>
	<path class="st0" d="M31.9,106.3c-0.1,0.1-0.2,0.1-0.4,0.2C31.7,106.5,31.8,106.4,31.9,106.3z"/>
	<path class="st0" d="M25,57.1c0,0,0.1-0.1,0.2-0.2C25.1,57,25.1,57,25,57.1z"/>
	<path class="st0" d="M42.8,45.2c0.7-0.3,1.2-0.4,1.8-0.6C44,44.7,43.4,44.9,42.8,45.2z"/>
	<path class="st0" d="M46.7,44.1c0.3,0,0.6-0.1,0.9-0.1C47.3,44,47,44,46.7,44.1z"/>
	<path class="st0" d="M45.1,44.5c0.4-0.1,0.8-0.2,1.1-0.3C45.8,44.3,45.5,44.4,45.1,44.5z"/>
	<path class="st0" d="M41.9,61.5c-0.1,0.1-0.1,0.1-0.2,0.2C41.8,61.7,41.8,61.6,41.9,61.5z"/>
	<path class="st0" d="M44.5,46.7c-0.2,0.1-0.3,0.1-0.5,0.2C44.2,46.8,44.4,46.8,44.5,46.7z"/>
	<path class="st0" d="M40.9,62.6c-0.1,0-0.2,0.1-0.2,0.1C40.8,62.7,40.8,62.7,40.9,62.6z"/>
	<path class="st0" d="M28.6,88.7l0.1-0.1C28.6,88.6,28.6,88.6,28.6,88.7z"/>
	<path class="st0" d="M38.5,65.4c0.1-0.1,0.1-0.1,0.2-0.2C38.6,65.3,38.5,65.3,38.5,65.4z"/>
	<path class="st0" d="M38.4,65.5c-0.1,0-0.1,0.1-0.2,0.1C38.2,65.6,38.3,65.6,38.4,65.5z"/>
	<path class="st0" d="M25.4,56.7c0.1-0.1,0.2-0.1,0.3-0.2C25.6,56.5,25.5,56.6,25.4,56.7z"/>
	<path class="st0" d="M40,48.6C39.9,48.6,39.9,48.7,40,48.6L40,48.6z"/>
	<path class="st0" d="M121.6,50.4c0,0.1,0.1,0.2,0.1,0.2C121.7,50.5,121.6,50.5,121.6,50.4z"/>
	<path class="st0" d="M39.5,82.6c-0.1-0.1-0.1-0.1-0.2-0.1C39.3,82.5,39.4,82.6,39.5,82.6z"/>
	<path class="st0" d="M39.1,82.4C39.1,82.5,39.2,82.5,39.1,82.4L39.1,82.4z"/>
	<path class="st0" d="M39.7,48.8c0.1,0,0.1,0,0.2-0.1C39.8,48.7,39.8,48.8,39.7,48.8z"/>
	<path class="st0" d="M37.8,49.8c0.2-0.1,0.4-0.1,0.5-0.2C38.1,49.7,38,49.7,37.8,49.8z"/>
	<path class="st0" d="M39.2,49.1c0.1,0,0.1,0,0.2-0.1C39.3,49,39.3,49.1,39.2,49.1z"/>
	<path class="st0" d="M14,107.3c0.1,0.1,0.2,0.1,0.3,0.1C14.3,107.3,14.2,107.3,14,107.3z"/>
	<path class="st0" d="M86.2,59.9C86.2,60,86.3,60,86.2,59.9L86.2,59.9z"/>
	<path class="st0" d="M77.5,72.3C77.6,72.4,77.6,72.3,77.5,72.3L77.5,72.3z"/>
	<path class="st0" d="M54,79.4C54.1,79.5,54.1,79.4,54,79.4L54,79.4z"/>
	<path class="st0" d="M65.6,80c0.2,0,0.4,0,0.5-0.1C65.9,80,65.8,80,65.6,80z"/>
	<path class="st0" d="M65.2,69.9c0.1,0.1,0.2,0.2,0.4,0.3C65.5,70.1,65.3,70,65.2,69.9z"/>
	<path class="st0" d="M64.9,69.7c0,0,0.1,0.1,0.2,0.1C65,69.8,65,69.7,64.9,69.7z"/>
	<path class="st0" d="M62.4,65.6c0.2,0.1,0.4,0.1,0.5,0.2C62.7,65.7,62.6,65.6,62.4,65.6z"/>
	<path class="st0" d="M61.9,65.6c0.2,0,0.3,0,0.4,0C62.2,65.6,62,65.5,61.9,65.6z"/>
	<path class="st0" d="M120.7,49.3c-0.1-0.1-0.1-0.1-0.2-0.1C120.5,49.2,120.6,49.3,120.7,49.3z"/>
	<path class="st0" d="M121,49.6c0.1,0.2,0.2,0.3,0.3,0.4C121.2,49.8,121.1,49.7,121,49.6z"/>
	<path class="st0" d="M71.1,0.1c-39,0-70.7,31.6-70.7,70.6s31.7,70.7,70.7,70.7c38.9,0,70.7-31.6,70.7-70.6S110.1,0.1,71.1,0.1z
		 M135.8,51C135.8,50.9,135.8,51,135.8,51C135.9,51,135.9,51,135.8,51C135.9,51,135.9,51,135.8,51C135.8,51,135.8,50.9,135.8,51z
		 M48.2,95.6c-1,1.1-2,2-2.9,2.8c0,0.2-0.3,0.4-0.8,0.7c-0.1,0.2-0.5,0.5-1.7,1.2c-0.7,0.6-2,1.6-4,2.8l-3.3,1.8l-1.6,0.8l-0.3,0.1
		c-0.5,0.3-1.5,0.8-4.1,1.6c-0.7,0.4-1.7,0.8-3.1,1.1l-0.2,0.1c-0.5,0.2-1.4,0.5-2.9,1l-0.3,0.1v-0.1c-0.2,0-0.3,0.1-0.6,0.1h-0.2
		v-0.1l-2.5,0.5h-0.2V110l-0.3,0.1h-0.1L19,110l-0.2-0.2c-0.8,0.1-1.5,0.2-1.8,0.2c-0.1,0-0.2,0-0.2,0h-0.1h-0.1H16v0.1l-0.3-0.1
		c-0.8-0.2-1.1-0.3-1.3-0.3c-0.1,0.1-0.2,0.1-0.3,0.1H14h-0.2v-0.2c0,0-0.1-0.2-1.2-0.5c-0.4-0.1-1-0.5-2.1-3.1l-0.1-0.3h0.3
		c0-0.5-0.1-0.7-0.1-0.8h-0.1v-0.1c0.1-2.2,1.5-4.8,4.2-7.6l4.4-3.8h0.1h0.1c0.1,0,0.3-0.1,0.7-0.4c0.9-0.7,1.1-0.8,1.3-0.8h0.2V92
		v-0.2h0.2H22h0.2c0.2-0.2,0.2-0.3,0.2-0.4v-0.2h0.2c0.1,0.1,0.2,0.1,0.3,0.1l2.8-1.5l0.3-0.2v0.1c0.4-0.3,1.1-0.6,2.4-1.2
		c0.1-0.1,0.3-0.2,0.6-0.3V88h0.3h0.5H30v0.2c0.3,0,0.5,0.1,0.7,0.4v-0.2v-0.2h0.2h0.3h0.2v0.2v0.5v0.2h-0.2h-0.3c0,0.1,0,0.2,0,0.3
		v0.2h-0.2c-0.3,0-0.6,0.1-0.8,0.4l-0.1,0.1h-0.1h-0.3c-2.2,1.2-4.5,2.5-6.6,3.8c-1,0.7-1.8,1.3-2.3,1.8h-0.1
		c-0.6,0.2-2.1,1.2-5.8,5.4c-1.4,1.9-2.1,3.2-2.1,4.1c0,1,0.4,1.6,1.1,1.9c0.4,0.1,0.7,0.2,0.9,0.2h0.2l1,0.2H16v-0.3l0.3,0.2
		l0.4,0.2c0.2,0,0.5,0,0.7,0c3.7,0,9.3-1.6,16.4-4.7c3.2-1.6,6.6-3.8,10-6.6l0.1-0.1H44c0,0,0.3-0.1,1-1c2.8-2.4,4.2-4.7,4.2-6.8
		c0-1.6-2.1-3.1-6.1-4.7L40.3,83v0.1L40,83c-0.3-0.1-0.5-0.1-0.7-0.2h-0.2l-3.6-0.6l-0.8,0.1l-3.8-0.2v0.1h-0.2
		c-0.2,0-0.3,0-0.4-0.1l-2,0.1H28c-0.2,0-0.4,0-0.7,0s-0.6,0-1,0H26l-0.4,0.2l-0.3,0.1v-0.2c-0.1,0-0.1,0-0.1,0h-0.1H25h-0.1h-0.1
		c-0.1,0-0.2,0-0.3,0L19.7,82l-0.3-0.1v0.2L19.1,82l-1.2-0.4c-0.1,0.1-0.2,0.1-0.4,0.1h-0.2v-0.2c-0.1-0.1-0.5-0.3-1.8-0.8
		c-2-1.4-2.9-3-2.9-4.7v-1.1c0-1.3,0.7-3.1,2.2-5.5c0-0.1,0-0.2,0-0.3V69c0,0-0.1,0.1-0.1,0.1l0.1-0.1v0c0.4-0.4,1.1-1.4,2-3.1
		c1.6-2.1,3.9-4.8,6.9-7.9v-0.1h0.1c0.1-0.1,0.7-0.6,2.8-2.7c4.5-4,8-6.4,10.4-7.3c1-0.8,2.9-1.8,5.6-2.9c2.4-0.8,4.4-1.2,6-1.2
		c0.1,0,0.1,0,0.2,0H49h0.1h0.1c2.2,0.4,3.6,1.6,4.1,3.6l0.1,0.9v0.2h-0.1c-0.1,0.1-0.1,0.3-0.4,0.9H53l-0.1,0.3
		c-1,2.4-2.9,5.4-5.7,8.9c-3.1,4-6.2,7.7-9.4,10.9v0.1c0,0.3-0.2,0.6-1.4,1.3c-0.7,1-1.6,1.8-2.8,2.5h-0.1h-0.4
		c-0.1,0-0.3-0.1-0.9-0.8v-0.1v-0.1c0-0.1,0-0.2,0-0.3v-0.2v-0.1l0.1-0.1c1.7-1.7,3.4-3.4,5-5.3c0-0.1,0-0.2,0-0.3v-0.2h0.2
		c0,0,0.4-0.2,2.1-2l-0.1-0.1v-0.1v-0.1v-0.3v-0.2h0.2c0.2,0,0.7-0.4,3.4-3.3l2.4-3c3.5-4.4,5.5-7.6,6-9.5c-0.4-0.8-1.3-1.2-2.7-1.3
		c0,0-0.1,0-0.2,0c-1.8,0-4.6,1-8.3,2.8h-0.1c-0.3,0.2-0.8,0.5-2.1,1.1c-2.5,1.4-5.2,3.3-8.1,5.7l-4.8,4.3l-3,3.3l-2,2.3
		c-3.6,5.1-5.4,8.7-5.4,10.8v0.4c-0.1,1.1,1.4,2,4.4,2.6c0.6,0.1,1.1,0.1,1.5,0.2v-0.3l0.3,0.2l0.3,0.1v-0.3l0.3,0.2l0.2,0.2
		l0.2-0.1l0.5-0.1v0.2H23c0,0.1,0.1,0.1,0.2,0.1l1.1,0.1l0.3-0.2l0.3-0.1v0.2H25c0.1,0,0.2,0,0.4,0c0.9,0,2.6,0,5.1-0.1h0.3l3.6,0.2
		c3.9,0.2,7.5,1,10.8,2.2c1.4,0.8,2.8,1.7,4,2.7c1.4,2.1,2.1,3.6,2,4.7l0.1,0.2C51.1,91.5,50,93.5,48.2,95.6z M92,73.3
		c0,0,0.1,0,0.2,0.1C92.1,73.4,92,73.3,92,73.3z M92.4,73.4c0.1,0,0.2,0,0.3,0C92.6,73.4,92.5,73.4,92.4,73.4z M93.1,73.5
		c-0.1,0-0.1,0-0.2,0C93,73.5,93,73.5,93.1,73.5c0.1,0,0.2,0,0.2,0C93.2,73.5,93.2,73.5,93.1,73.5z M100.8,67.3
		c0.1,0.1,0.1,0.1,0.2,0.3C100.9,67.5,100.8,67.4,100.8,67.3z M101.1,67.6c0.1,0.1,0.1,0.1,0.2,0.2
		C101.2,67.8,101.1,67.7,101.1,67.6z M101.4,68c0,0,0.1,0,0.2,0.1C101.5,68.1,101.5,68,101.4,68z M101.8,68.2c0,0,0.1,0,0.2,0.1
		C101.9,68.3,101.8,68.2,101.8,68.2z M102.1,68.3c0.1,0.1,0.2,0.1,0.3,0.1C102.3,68.4,102.2,68.4,102.1,68.3z M102.6,68.5
		c0.1-0.1,0.2-0.1,0.3,0C102.8,68.5,102.7,68.5,102.6,68.5z M103.1,68.5c0.2,0,0.3,0,0.5,0C103.4,68.5,103.3,68.5,103.1,68.5z
		 M138.1,51.2c0,0.2-0.2,0.5-0.4,0.7V52l0.1,0.2l-0.2,0.1h-0.2c0,0.1-0.1,0.6-1.9,3.4l-0.3,0.4l-0.1-0.2c-2.1,3.7-3.7,6-4.8,6.8
		l-0.1,0.1h-0.1H130v0.1l-0.2,0.1c-0.3,0.1-0.7,0.2-1,0.2c-1,0-1.8-0.5-2.3-1.5l-0.5-0.9c-0.1-0.1-0.1-0.2,0-0.3l-0.3-0.6
		c-0.2-1.2-0.2-1.8-0.1-2c0-0.1-0.1-0.2-0.1-0.3c0.1-1,0.2-1.4,0.3-1.6l-0.1-0.1l-0.1-0.1v-0.1l0.3-2.1c-0.2,0.4-0.5,1.1-0.9,1.9
		c-0.7,1.1-1.3,2.4-1.9,3.9v0.1H123c0,0-0.3,0.4-1.3,2.6c-0.8,1.7-1.1,2-1.3,2.1s-0.3,0.2-0.4,0.2l-0.2,0.1v0.1h-0.3
		c-0.6,0-1-0.3-1.2-0.9v-0.1c0-0.1,0-0.1,0-0.2L118,63c-0.2-0.6,0.2-2.3,1-5.2l0.2-0.6l0.1-0.3c0.2-1.1,0.3-1.5,0.4-1.7l-0.1-0.2
		h0.1v-0.2v-0.1v-0.1c0.3-1.1,0.4-1.7,0.5-2.1c-0.2,0.2-0.4,0.5-0.8,0.9v0.1l0.1,0.3l-0.3-0.1h-0.1c-0.1,0.3-0.4,0.6-1,1.3
		c0,0.2-0.3,0.7-1.5,2.5c-0.3,0.8-0.5,1-0.6,1.1c-1.3,2.8-1.6,3.4-1.6,3.6v0.1c-0.7,1.3-1.3,3-2,5.1v0.1c-0.5,0.4-0.9,0.6-1.1,0.7
		l-0.2,0.1H111c-0.1,0-0.1,0.1-0.2,0.1h-0.1l-0.1-0.1l-0.5-0.5v-0.1v-0.1c-0.1-0.1-0.1-0.2,0-0.3c-0.1,0-0.1,0-0.1,0h-0.1l-0.2,0.1
		l-0.1-0.2c-0.1-0.5,0-2,0.3-4.3l-0.3-0.1l-0.3-0.1c0,0.1,0,0.2-0.1,0.3l-0.1,0.1c0,0.2,0,0.2,0,0.2l0.2,0.2l-0.3,0.1h-0.1h-0.2
		c0,0.2-0.1,0.3-0.2,0.4l0.1,0.2l-0.2,0.1h-0.1l0.1,0.1l-0.2,0.1h-0.1c-0.1,0-0.1,0-0.1,0h-0.1h-0.1c0.1,0.2,0,0.3-0.6,1.1l-0.1,0.1
		H107h-0.1c-0.1,0-0.1,0.1-0.2,0.1c0,0.4-0.1,0.6-0.3,0.7h-0.1l0.1,0.3l-0.3-0.1H106c-0.3,0.4-0.9,1-1.8,1.6h-0.1H104h-0.2
		c-0.2,0-0.4,0-0.6,0c-1.4,0-2.4-0.6-2.8-1.9c-0.2-1.2-0.3-2.2-0.3-2.8l-0.6,1.2l-0.1,0.1h-0.1c-0.1,0.5-0.3,0.8-0.6,1
		c0.1,0.3-0.1,0.4-0.2,0.5l0.1,0.3h-0.2l-0.2,0.1h-0.1h-0.2c-0.1,0.2-0.2,0.5-0.5,0.9c-0.1,0.2-0.2,0.3-0.2,0.3l0.1,0.3h-0.1v0.1
		l-0.1,0.1c-0.1,0.1-0.1,0.2-0.2,0.2c0,0.1,0,0.2,0,0.2v0.2l-0.2,0.1l-0.2,0.1h-0.1c-0.1,0.3-0.3,0.7-0.6,1c0,0.3-0.1,0.7-1,1.8
		c0,0.3-0.4,0.7-1.4,1.3h-0.1c-0.1,0-0.1,0-0.2,0c-0.5,0-1-0.1-1.3-0.2c0,0,0,0,0.1,0c-0.1,0-0.1,0-0.1-0.1
		c-0.1-0.1-0.2-0.1-0.3-0.2c-0.5-0.4-0.8-0.7-0.9-1c-0.1-0.1-0.1-0.3-0.1-0.4l-0.1-0.1c-0.2-0.7-0.2-1-0.2-1.2l-0.1-0.1V70
		c-0.2-1.1,0-2.8,0.7-5.3c-1,0.8-2.2,1.7-3.7,2.8c-0.3,0.3-0.4,0.6-0.5,0.9c0,0.1,0.1,0.1,0.1,0.2l0.1,0.2l-0.2,0.1
		c-0.2,0-0.3,0.2-0.4,0.6c0.1,0.2,0,0.3,0,0.4c0,0.1-0.1,0.1-0.2,0.2v0.1l-0.2,0.1c-0.1,0-0.2,0-0.6,0.7v0.1l0.2,0.2l-0.2,0.1
		c-0.6,0.3-0.9,0.7-1,1.1L84,73.1l-0.1-0.3c-0.1,0.3-0.3,0.5-0.6,0.7l-0.1,0.1c-0.1,0.1-0.1,0.2-0.2,0.3c-0.1,0-0.2,0.1-0.4,0.2
		l0.2,0.2l-0.3,0.1c-0.1,0-0.1,0-0.1,0l0.1,0.2l-0.2,0.1h-0.1L82,74.8v-0.1c-1.2,1-1.2,1-1.3,1l-0.2,0.1v-0.1
		c-0.1,0.1-0.3,0.2-0.4,0.2L79.9,76h-0.1h-0.5c-0.2,0.1-0.3,0.2-0.4,0.2l-0.2,0.1h-0.1l-0.2,0.1l-0.1-0.2l-0.1-0.5l-0.1-0.2h0.1
		c-0.6-0.8-0.7-1-0.7-1.1c0-0.5,0-0.7,0.1-0.9l-0.1-0.1l-0.1-0.1v-0.1c0.1-0.1,0.1-0.2,0.2-0.4c-0.1,0.1-0.2,0.1-0.3,0.3v0.1v0.1
		l0.1,0.2l-0.2,0.1c-0.1,0-0.3,0.1-0.4,0.3L76.7,74c0,0.4-0.1,0.7-0.2,0.8c0.1,0.1,0.1,0.4-0.3,0.6l0.1,0.1l0.2,0.2l-0.3,0.1
		c0,0-0.3,0.1-0.3,0.6l0.2-0.1L76,76.7c0,0.1,0,0.2,0,0.4l-0.1,0.3l-0.2-0.1c-0.9,7.1-1.1,8.4-1.3,8.7c0.1,0.1,0.2,0.2,0.2,0.3
		l0.1,0.2h-0.1c0,0.2-0.1,0.5-0.3,1.6l0.1,0.1l0.1,0.1v0.1c0,0.4-0.1,0.6-0.2,0.7l0.2,0.2l-0.2,0.1c-0.1,0.1-0.2,0.2-0.2,0.2
		c0.1,0.1,0.2,0.2,0.2,0.3V90l-0.1,0.1c-0.1,0.1-0.1,0.2-0.2,0.2l0.2,0.4c0,0.2-0.1,0.5-0.4,0.7l0.1,0.1l0.1,0.2
		c0.1,0.4,0,1.2-0.4,2.3c0.1,0.2,0.1,0.4,0,0.6c0,0.1-0.1,0.2-0.1,0.2l-0.1,0.3l-0.1,0.6c0,0.1,0.1,0.1,0.1,0.2V96v0.1
		c-0.3,0.9-0.5,1.3-0.6,1.5c0.1,0.1,0.2,0.2,0.2,0.3l0.2,0.5L73,98.5c0,0-0.2,0.3-0.3,1.7c-0.3,1.3-0.4,1.6-0.6,1.7l-0.3,0.3h-0.1
		l-0.7,0.2h-0.1l-0.1-0.1c-0.2-0.2-0.4-0.5-0.5-0.7l-0.2,0.1l-0.1-0.2c0-0.1,0-0.2,0-0.3c-0.1-0.2-0.2-0.3-0.2-0.3h-0.2v-0.2
		c0-0.3,0-0.5,0-0.7v-0.2c-0.1-0.6-0.1-1.1,0-1.6v-0.3c0.4-4.1,0.4-5,0.4-5.1l-0.1-0.3h0.3c0.2-2.6,0.5-3.4,0.8-3.6l0.1-1v-0.1h0.1
		c0-0.5,0.5-3,1.5-7.5c0.7-3.3,1.1-6.4,1.2-9.3c-0.1,0.4-0.6,1.6-3.4,5.9c-1.3,1.9-2.7,3-4.1,3.4h-0.2c-0.3,0.1-0.5,0.1-0.8,0.1
		c-1.3,0-2.3-1-2.8-3v-0.1v-0.1c0.2-0.7,0.2-0.9,0.2-0.9L62.7,76h0.1l0-0.1l-0.1-0.2c-3.1,5.9-5.5,9-7.3,9.5h-0.2
		c-0.4,0-0.7,0.1-1,0.1c-0.9,0-1.6-0.5-2-1.3l-0.4-0.3v-0.1l-0.1-0.5c-0.6-3.1,0.5-7.7,3.4-13.6c1.8-3.4,3.8-5.4,5.9-6
		c2.4,0.3,3.9,1.3,4.4,3.1c0,0.7,0,1.6-0.6,1.8h-0.1h-0.1c-1-0.7-1.7-1.5-2-2.5c-0.3-0.1-0.6-0.2-0.9-0.2c-0.2,0-0.4,0-0.7,0.1
		c-0.6,0.1-1.9,1.3-4.3,5.7c0,0.1,0.1,0.1,0.1,0.2l0.1,0.2L56.7,72c0,0-0.2,0.1-0.6,0.9h0.1l-0.1,0.4c-0.4,1.3-0.8,1.9-1,2.1
		l0.2-0.1v0.3c-0.1,0.9-0.3,1.5-0.6,1.8v0.1v0.1l0.1,0.2l-0.2,0.1c-0.1,0-0.3,0.1-0.4,1.4c0.1,0,0.2,0.1,0.2,0.2l0.1,0.2l-0.2,0.1
		c0,0-0.1,0.2,0,1v0.3h-0.2c0,0.1,0.1,0.1,0.1,0.2v0.1l-0.1,0.1L54,81.6v0.2v0.8l0.2,0.7c1.1-0.5,2.8-2.7,4.9-6.6
		c3.4-6.3,4.4-7.2,4.9-7.3l0.4,0.1h0c0,0,0,0,0.1,0c0,0,0.1,0,0.1,0c0,0,0,0,0,0c0,0,0.1,0,0,0c0,0,0,0,0,0c0,0,0,0,0,0
		c0.2,0.1,0.5,0.2,1.1,0.7h0.1v0.1l0.2,0.8c-0.1,0.6-0.2,0.9-0.3,1.1v0.1v0.1l-0.1,0.5l0.1,0.4v0.1l-0.1,0.1c0,0-0.3,0.2-0.1,0.8
		l0.1,0.3l-0.3-0.1c-0.1,0.8-0.2,1.2-0.3,1.4h0.1v0.2l0.1,0.2L65,76.4c-0.1,0-0.2,0-0.2,0.1c0,0.1,0,0.1,0,0.2
		c0.2,0.2,0.3,0.4,0.3,0.5v0.2l-0.2,0.1c-0.1,0-0.1,0.1-0.1,0.1l0.2,0.6l0.6-0.2l0.2-0.2l0.2-0.2c0.8-0.5,1.7-1.4,2.6-2.4
		c0.4-0.7,1-1.7,1.7-2.8c0.4-0.7,0.8-1.3,1.2-1.7v-0.2l-0.1-0.2l0.2-0.1l0.3-0.1c0-0.2,0-0.6,1.7-3.4c0.1-0.2,0.2-0.3,0.2-0.4
		l-0.2,0.1l0.1-0.3l0.1-0.5c0-0.1-0.1-0.1-0.1-0.2l-0.1-0.2l0.2-0.1l0.5-0.1h0.1l0.1,0.1l0.1,0.1h0.1v0.1c0,0,0.1-0.1,0.2-0.1h0.2
		l0.2-0.1l0.1,0.2l0.1,0.4h0.1l0.2-0.1l0.1,0.2V66v0.1l0.1,0.2v0.2v0.1c0,0,0.1,0.1,0.1,0.2l0.1,0.2c0.2,0.7,0.2,1.3,0.2,1.7h0.2
		L76.5,69h0.1c0.2,0,0.4-0.2,0.7-0.6l0.1-0.1c0-0.1,0-0.1,0-0.1c0-0.3,0.1-0.4,0.2-0.4v-0.1l0.1-0.1l2.7-3.8l0.1-0.1h0.1h0.1
		c-0.1-0.2,0-0.4,0.3-0.5c0.1-0.1,0.2-0.2,0.3-0.2h0.2v-0.1l0.1-0.1l0.5-0.6L82,61.9l-0.1-0.2l0.2-0.1h0.1h0.1l0.3-0.3l0.1-0.1h0.1
		l0.3,0.1c0.2-0.3,0.7-0.6,1.5-1h0.1c0-0.2,0.1-0.3,0.3-0.4h0.1c0.1-0.1,0.2-0.2,0.3-0.2h0.1l0.3-0.1v0.3l0.1-0.1c0.1,0,0.1,0,0.2,0
		c0.5,0,1.1,0.6,1.7,1.9l0.1,0.2l0.1,0.5v0.8c0,0.3,0,0.6-0.1,0.9c1.9-1.3,2.2-1.7,2.3-1.8L90.1,62h0.3v-0.1h0.3h0.2l0.2-0.5v-0.1
		h0.1c0.6-0.1,0.5-0.3,0.5-0.4l-0.1-0.2l0.2-0.1v-0.1v-0.2l0.2-0.1l0.8-0.4c0.2,0,0.4,0.1,0.6,0.4c0.1,0,0.2,0.1,0.3,0.3v0.1
		c0.1,0,0.2,0.1,0.2,0.2V61c0.1,0.2,0.2,0.5,0.3,0.7c0,0.2,0.1,0.7-0.4,2.8l0.3,0.5l-0.6-0.2h-0.1c0,0.1,0,0.1,0,0.1
		c0,0.1,0.1,0.1,0.1,0.2v0.1v0.1c-0.2,0.8-0.4,1.2-0.5,1.4v0.1c0,0.1,0,0.2,0,0.3c0,0.1-0.1,0.2-0.2,0.2c0,0.4-0.1,0.9-0.3,1.5
		c0,0.2,0,0.5-0.2,1.9h0.2c0.4-0.4,1.1-1.5,2.1-3.2c0.3-0.5,0.5-0.8,0.6-1L95,66.3l0.3-0.1h0.1h0.1c0.1-0.2,0.3-0.5,0.7-1.1
		c-0.1-0.4,0.2-0.6,0.4-0.8v-0.1L96.5,64l0.5-0.1h0.1l1.4-2.1l-0.1-0.2l0.2-0.1h0.1c0.1-0.1,0.2-0.3,0.3-0.5c0-0.3,0.3-0.7,0.9-1.2
		c0-0.2,0.1-0.3,0.2-0.4l0.2-0.1c0.2-0.5,0.7-1.1,1.4-2.1c0.1-0.1,0.2-0.1,0.3-0.1s0.2,0,0.4,0h0.2v0.2v0.2l0.1,0.1
		c0.2,0.1,0.2,0.2,0.3,0.2l0.3-0.1l-0.1,0.3l-0.1,0.3c0.1,0,0.1,0,0.1,0l0.2-0.1l0.1,0.2l0.1,0.4v0.1V59c-0.1,1-0.3,1.6-0.6,1.9V61
		v0.1c0,0.2,0,0.4-0.2,0.6l-0.3,0.3l-0.1-0.2c0,0.1-0.1,0.3-0.2,0.4l0.1,0.3l0.3-0.1l-0.1,0.4l-0.2,0.6v0.1c0,0.2,0,0.3,0,0.4v0.2
		l-0.2,1.5c0,0.1,0.1,0.1,0.1,0.2l0.2-0.3l0.1,0.2h0.1c0.3-0.3,0.7-0.7,1.4-1.2l4.1-4.8c0.2-0.4,0.5-0.7,1-1.1c0-0.2,0-0.3,0-0.3
		L109,58l0.7-0.2v-0.1l0.2-0.1c0.1-0.1,0.3-0.3,1.2-1.7c0-0.2,0-0.2,0-0.3H111v-0.3c0.2-1.2,0.3-2,0.4-2.3v-0.1h0.1h0.1h0.1h0.1
		c1,0.6,1.5,1.1,1.6,1.5l0.1,0.2h-0.1c0,0.2-0.1,1-0.3,3.5v0.1l-0.1,0.1l-0.1,0.1l0.1,0.1v0.1c-0.1,0.7-0.2,1.3-0.3,1.8
		c0.6-1.1,1.2-2.4,1.8-4v-0.1h0.1c0.1,0,0.2-0.2,0.7-1.1c0.6-1.3,1.7-2.8,3.1-4.6l0.1-0.1h0.1c0-0.3,0.2-0.6,0.7-0.9l0.6-0.6h0.1
		l0.5-0.1c0.1,0,0.2,0,0.3,0c0.5,0,0.9,0.4,1.2,1l0.1,0.2c0.1,0.1,0.2,0.2,0.3,0.4v0.1l0.1,0.2h-0.1c0.1,0.9,0.1,1.6-0.1,2
		c0,0.1,0,0.3-0.1,0.5c0,0.1,0.1,0.1,0.1,0.2v0.1v0.1c-0.4,0.8-0.5,1.6-0.6,2.4c-0.1,0.5-0.2,1-0.3,1.3c1.1-2.1,1.9-3.5,2.4-4.4
		c0-0.2,0.1-0.5,0.8-1.3c0-0.3,0.4-0.9,1.8-2.6h0.1c0,0,0.1,0,0.4-0.2l0.1-0.1l0.1,0.1c0.7,0.5,1.1,1,1.3,1.6l0.1,0.2l0.1,0.1v0.1
		V51c0,1-0.1,1.9-0.4,2.6l0.1,0.1l0.1,0.1l-0.1,0.1c-0.1,0.1-0.2,0.2-0.2,0.3h0.1l-0.1,0.3l-0.1,0.6c0,0.1,0.1,0.1,0.1,0.2v0.1
		l-0.1,0.1c-0.1,0.1-0.3,0.5-0.2,2.8h0.1v0.3c0,0.3,0,0.8,0.1,1.6c0.1,0.3,0.3,0.3,0.4,0.3c0,0,0.1,0,0.2,0l0.2-0.1
		c0.5-0.1,1.8-1.6,5.8-7.6v-0.1h0.1c0,0,0.4-0.2,1.1-1.6c0,0,0,0,0,0s0,0,0,0c0,0,0-0.1,0.1-0.1l-0.1-0.2l0.2-0.1l0.1-0.2
		c0,0,0-0.1,0-0.1l-0.1-0.3h0.3h0.1c0.3-0.6,0.5-1,0.8-1.2c0-0.4,0.2-0.5,0.3-0.5h0.1l0.2-0.1l0.1,0.2c0.1,0.2,0,0.4-0.2,0.6v0.1
		c0,0.1,0,0.1,0,0.1l0.2-0.1l0.1,0.2l0.1,0.2v0.1l-0.1,0.1c-0.2,0.3-0.3,0.6-0.2,0.8c0,0,0.1-0.2,0.2-0.4v-0.1h0.1h0.1l0.2-0.1
		l0.1,0.3C138.5,50.4,138.5,50.7,138.1,51.2L138.1,51.2z M119.3,56.6C119.3,56.6,119.4,56.6,119.3,56.6
		C119.4,56.6,119.3,56.6,119.3,56.6z"/>
	<path class="st0" d="M109.9,67c-0.1-0.1-0.1-0.1-0.2-0.1C109.8,66.9,109.9,67,109.9,67z"/>
	<path class="st0" d="M108.6,62.9C108.6,62.8,108.5,62.9,108.6,62.9L108.6,62.9z"/>
	<path class="st0" d="M100.8,67.1c-0.1-0.1-0.1-0.2-0.2-0.4C100.6,66.9,100.7,67,100.8,67.1z"/>
	<path class="st0" d="M109.6,62.4L109.6,62.4c0.1,0,0.1-0.2,0.1-0.3l-0.1,0.1C109.6,62.2,109.6,62.3,109.6,62.4z"/>
	<path class="st0" d="M63.3,78.6c-0.1-0.2-0.1-0.3-0.2-0.4C63.2,78.3,63.2,78.5,63.3,78.6z"/>
	<path class="st0" d="M102.6,58.2c0.1,0.1,0.1,0.1,0.2,0.1C102.7,58.3,102.7,58.2,102.6,58.2z"/>
	<path class="st0" d="M102.4,58c0.1,0.1,0.1,0.1,0.2,0.2C102.5,58.1,102.5,58,102.4,58z"/>
</g>
</svg>
