<?xml version="1.0" encoding="utf-8"?>
<!-- Generator: Adobe Illustrator 22.1.0, SVG Export Plug-In . SVG Version: 6.00 Build 0)  -->
<svg version="1.1" id="Layer_1" xmlns="http://www.w3.org/2000/svg" xmlns:xlink="http://www.w3.org/1999/xlink" x="0px" y="0px"
	 viewBox="0 0 141.7 141.7" style="enable-background:new 0 0 141.7 141.7;" xml:space="preserve">
<style type="text/css">
	.st0{fill:#FFFFFF;}
</style>
<g>
	<path class="st0" d="M71.1,141.4c-39,0-70.7-31.7-70.7-70.7S32.1,0.1,71.1,0.1c39,0,70.7,31.7,70.7,70.7S110,141.4,71.1,141.4z
		 M71.1,2.6C33.5,2.6,3,33.2,3,70.7s30.6,68.1,68.1,68.1c37.6,0,68.1-30.6,68.1-68.1S108.6,2.6,71.1,2.6z"/>
	<g>
		<path class="st0" d="M51.2,89.4l0.1-0.1l0,0l0,0c0-1-0.7-2.5-2.1-4.6l0,0l0,0c-1.2-1-2.6-1.9-4-2.7c-3.3-1.2-6.9-2-10.8-2.2
			l-3.6-0.2l0,0l-0.3,0c-2.5,0.1-4.2,0.1-5.1,0.1c-0.2,0-0.3,0-0.4,0c0,0-0.1,0-0.1,0c0,0,0,0,0,0l0-0.2l-0.3,0.1l-0.3,0.2l-1.1-0.1
			l0,0l0,0l0,0c-0.1,0-0.2,0-0.2-0.1l-0.5,0l0-0.2L22,79.5l-0.2,0.1l-0.2-0.2l-0.3-0.2l0,0.3l-0.3-0.1l-0.3-0.2l0,0.3
			c-0.4-0.1-0.9-0.1-1.5-0.2c-3-0.6-4.5-1.5-4.4-2.6l0-0.4c0-2.1,1.8-5.7,5.4-10.8l2-2.3l3-3.3l4.8-4.3c2.9-2.4,5.6-4.3,8.1-5.7
			c1.3-0.6,1.8-0.9,2.1-1.1l0.1,0C44,47,46.8,46,48.6,46c0.1,0,0.2,0,0.2,0c1.4,0.1,2.3,0.5,2.7,1.3c-0.5,1.9-2.5,5.1-6,9.5l-2.4,3
			c-2.7,2.9-3.2,3.3-3.4,3.3l-0.2,0l0,0.2l0,0.3l0,0.1l0,0.1l0.1,0.1c-1.7,1.8-2.1,2-2.1,2l-0.2,0l0,0.2c0,0.1,0,0.2,0,0.3
			c-1.6,1.9-3.3,3.6-5,5.3l-0.1,0.1l0,0.1l0,0.2l0,0l0,0l0,0c0,0.1,0,0.2,0,0.3l0,0.1l0,0.1c0.6,0.7,0.8,0.8,0.9,0.8l0.4,0l0.1,0
			l0,0c1.2-0.7,2.1-1.5,2.8-2.5c1.2-0.7,1.4-1,1.4-1.3l0-0.1c3.2-3.2,6.3-6.9,9.4-10.9c2.8-3.5,4.7-6.5,5.7-8.9l0.1-0.3l-0.1,0
			c0.3-0.6,0.3-0.8,0.4-0.9l0.1,0l0-0.2l-0.1-0.9c-0.5-2-1.9-3.2-4.1-3.6l0,0l-0.1,0c0,0-0.1,0-0.1,0l-0.2,0l0,0c-0.1,0-0.1,0-0.2,0
			c-1.6,0-3.6,0.4-6,1.2c-2.7,1.1-4.6,2.1-5.6,2.9c-2.4,0.9-5.9,3.3-10.4,7.3c-2.1,2.1-2.7,2.6-2.8,2.7l-0.1,0l0,0.1
			c-3,3.1-5.3,5.8-6.9,7.9c-1,1.8-1.7,2.9-2.1,3.2L14.8,69l0,0.1c0,0.1,0,0.2,0,0.3c-1.5,2.4-2.2,4.2-2.2,5.5l0,1.1
			c0,1.7,0.9,3.3,2.9,4.7l0,0l0,0c1.3,0.5,1.7,0.7,1.8,0.8l0,0.2l0.2,0c0.2,0,0.3,0,0.4-0.1l1.2,0.4l0.3,0.1l0-0.2l0.3,0.1l4.8,0.3
			l0,0l0,0l0,0c0.1,0,0.2,0,0.3,0l0.1,0l0.1,0l0.1,0l0.1,0c0,0,0,0,0.1,0l0,0.2l0.3-0.1l0.4-0.2l0.3,0c0.4,0,0.7,0,1,0
			c0.3,0,0.5,0,0.7,0l0,0l0.3,0l2-0.1c0.1,0.1,0.2,0.1,0.4,0.1l0.2,0l0-0.1l3.8,0.2l0.8-0.1l3.6,0.6l0.2,0l0,0
			c0.2,0.1,0.4,0.1,0.7,0.2l0.3,0.1l0-0.1l2.8,0.7c4,1.6,6.1,3.1,6.1,4.7c0,2.1-1.4,4.4-4.2,6.8c-0.7,0.9-1,1-1,1l-0.1,0l-0.1,0.1
			c-3.4,2.8-6.8,5-10,6.6c-7.1,3.1-12.7,4.7-16.4,4.7c-0.2,0-0.5,0-0.7,0l-0.4-0.2l-0.3-0.2l0,0.3l-0.3,0l-1-0.2l-0.2,0l0,0
			c-0.2,0-0.5-0.1-0.9-0.2c-0.7-0.3-1.1-0.9-1.1-1.9c0-0.9,0.7-2.2,2.1-4.1c3.7-4.2,5.2-5.2,5.8-5.4l0.1,0l0,0
			c0.5-0.5,1.3-1.1,2.3-1.8c2.1-1.3,4.4-2.6,6.6-3.8l0.3,0l0.1,0l0.1-0.1c0.2-0.3,0.5-0.4,0.8-0.4h0.2l0-0.2c0-0.1,0-0.2,0-0.3l0,0
			l0.3,0l0.2,0l0-0.2l0-0.5l0-0.2l-0.2,0l-0.3,0l-0.2,0l0,0.2l0,0.2c-0.2-0.3-0.4-0.4-0.7-0.4l0-0.2l-0.2,0l-0.5,0L29,88l0,0.2l0,0
			c-0.3,0.1-0.5,0.2-0.6,0.3c-1.3,0.6-2,0.9-2.4,1.2l0-0.1l-0.3,0.2l-2.8,1.5c-0.1,0-0.2,0-0.3-0.1l-0.2,0l0,0.2
			c0,0.1,0,0.2-0.2,0.4l0,0l-0.2,0l-0.3,0l-0.2,0l0,0.2l0,0.2l-0.2,0c-0.2,0-0.4,0.1-1.3,0.8c-0.4,0.3-0.6,0.4-0.7,0.4h-0.1l-0.1,0
			l-4.4,3.8c-2.7,2.8-4.1,5.4-4.2,7.6l0,0.1l0.1,0c0,0.1,0.1,0.3,0.1,0.8l-0.3,0l0.1,0.3c1.1,2.6,1.7,3,2.1,3.1
			c1.1,0.3,1.2,0.5,1.2,0.5l0,0.2l0.2,0c0,0,0.1,0,0.1,0c0.1,0,0.2,0,0.3-0.1c0.2,0,0.5,0.1,1.3,0.3l0.3,0.1l0-0.1l0.6,0l0.1,0l0,0
			l0.1,0c0,0,0.1,0,0.2,0c0.3,0,1-0.1,1.8-0.2L19,110l0.1,0.1l0.1,0l0.3-0.1l0,0.1l0.2,0l2.5-0.5l0,0.1l0.2,0c0.3,0,0.4-0.1,0.6-0.1
			l0,0.1l0.3-0.1c1.5-0.5,2.4-0.8,2.9-1l0,0l0.2-0.1c1.4-0.3,2.4-0.7,3.1-1.1c2.6-0.8,3.6-1.3,4.1-1.6l0.3-0.1l1.6-0.8l3.3-1.8
			c2-1.2,3.3-2.2,4-2.8c1.2-0.7,1.6-1,1.7-1.2c0.5-0.3,0.8-0.5,0.8-0.7c0.9-0.8,1.9-1.7,2.9-2.8c1.8-2.1,2.9-4.1,3.1-6l0-0.1l0-0.1
			L51.2,89.4z M29.5,79.7c-0.1,0-0.2,0-0.2,0C29.3,79.7,29.4,79.7,29.5,79.7z M28.6,79.7c-0.1,0-0.2,0-0.3,0
			C28.4,79.7,28.5,79.7,28.6,79.7z M27.8,79.8c-0.1,0-0.2,0-0.3,0C27.6,79.8,27.7,79.8,27.8,79.8z M27,79.8c-0.1,0-0.1,0-0.2,0
			C26.9,79.8,26.9,79.8,27,79.8z M26.2,79.8C26.2,79.8,26.2,79.8,26.2,79.8C26.2,79.8,26.2,79.8,26.2,79.8z M25.7,79.8
			c-0.1,0-0.1,0-0.1,0C25.6,79.8,25.7,79.8,25.7,79.8z M25.3,79.8C25.3,79.8,25.3,79.8,25.3,79.8C25.3,79.8,25.3,79.8,25.3,79.8z
			 M24.9,79.8C24.9,79.8,25,79.8,24.9,79.8c0,0-0.1,0-0.2,0C24.8,79.8,24.8,79.8,24.9,79.8z M15,69.3C15,69.3,15,69.3,15,69.3
			C15,69.3,15,69.3,15,69.3C15,69.3,15,69.3,15,69.3z M24,58C24,58,24,58,24,58C24,58,24,58,24,58z M24.1,57.9
			C24.2,57.9,24.2,57.9,24.1,57.9C24.2,57.9,24.2,57.9,24.1,57.9z M24.4,57.7c0,0,0.1-0.1,0.1-0.1C24.4,57.7,24.4,57.7,24.4,57.7z
			 M24.6,57.5c0.1,0,0.1-0.1,0.2-0.1C24.7,57.4,24.7,57.4,24.6,57.5z M37.8,49.8c0.2-0.1,0.3-0.1,0.5-0.2
			C38.2,49.7,38,49.7,37.8,49.8z M38.4,49.5c0.1,0,0.2-0.1,0.3-0.1C38.6,49.4,38.5,49.5,38.4,49.5z M38.9,49.3
			c0.1,0,0.2-0.1,0.2-0.1C39,49.2,38.9,49.3,38.9,49.3z M39.2,49.1c0.1,0,0.1-0.1,0.2-0.1C39.3,49.1,39.3,49.1,39.2,49.1z M39.5,49
			c0.1-0.1,0.2-0.1,0.2-0.1C39.7,48.9,39.6,48.9,39.5,49z M39.7,48.8c0.1,0,0.1-0.1,0.2-0.1C39.8,48.8,39.8,48.8,39.7,48.8z
			 M40,48.6C39.9,48.7,39.9,48.7,40,48.6C39.9,48.7,39.9,48.6,40,48.6C40,48.6,40,48.6,40,48.6C40,48.6,40,48.6,40,48.6
			C40,48.6,40,48.7,40,48.6C40,48.7,40,48.6,40,48.6z M41.4,48c0.2-0.1,0.3-0.1,0.4-0.2C41.7,47.9,41.6,47.9,41.4,48z M42.8,47.4
			c0.2-0.1,0.3-0.1,0.5-0.2C43.1,47.3,43,47.3,42.8,47.4z M44,46.9c0.2-0.1,0.3-0.1,0.5-0.2C44.4,46.8,44.2,46.8,44,46.9z
			 M45.2,46.5c0.2-0.1,0.3-0.1,0.5-0.1C45.5,46.4,45.4,46.4,45.2,46.5z M46.2,46.2c0.1,0,0.3-0.1,0.4-0.1
			C46.5,46.1,46.4,46.1,46.2,46.2z M47.2,46c0.1,0,0.3,0,0.4-0.1C47.5,45.9,47.3,45.9,47.2,46z M48,45.8c0.1,0,0.2,0,0.4,0
			C48.3,45.8,48.2,45.8,48,45.8z M37.6,66C37.6,66,37.6,66,37.6,66C37.6,66,37.6,66,37.6,66z M41.7,61.7c0.1-0.1,0.1-0.1,0.2-0.2
			C41.8,61.6,41.8,61.7,41.7,61.7z M42.3,61.1c0.1-0.1,0.2-0.2,0.3-0.3C42.5,60.9,42.4,61,42.3,61.1z M41.3,62.1
			c-0.1,0.1-0.1,0.1-0.2,0.2C41.2,62.2,41.3,62.2,41.3,62.1z M40.9,62.6c-0.1,0.1-0.1,0.1-0.2,0.1C40.7,62.7,40.8,62.6,40.9,62.6z
			 M40.5,62.9c0,0-0.1,0.1-0.1,0.1C40.4,63,40.4,63,40.5,62.9z M40.1,63.2c0,0-0.1,0-0.1,0.1C40.1,63.2,40.1,63.2,40.1,63.2z
			 M39.9,63.3C39.9,63.4,39.9,63.4,39.9,63.3C39.9,63.4,39.9,63.4,39.9,63.3z M39.9,63.9c-0.3,0.3-0.5,0.5-0.7,0.7
			C39.4,64.4,39.7,64.2,39.9,63.9z M38.9,65c0.1-0.1,0.1-0.1,0.2-0.2C39,64.9,38.9,65,38.9,65z M38.7,65.2c-0.1,0.1-0.1,0.1-0.2,0.2
			C38.5,65.3,38.6,65.3,38.7,65.2z M37.8,66C37.8,65.9,37.8,65.9,37.8,66C37.8,65.9,37.8,65.9,37.8,66z M38,65.8c0,0,0.1,0,0.1-0.1
			C38,65.8,38,65.8,38,65.8z M38.2,65.6c0.1,0,0.1-0.1,0.2-0.1C38.3,65.6,38.2,65.6,38.2,65.6z M32.5,72.1
			C32.5,72.1,32.5,72.1,32.5,72.1C32.5,72.2,32.5,72.1,32.5,72.1C32.5,72.1,32.5,72.1,32.5,72.1z M32.5,72.2c0,0,0,0.1,0,0.2
			C32.5,72.3,32.5,72.2,32.5,72.2z M49.1,43.9L49.1,43.9c-0.3,0-0.6,0-0.9,0c0.2,0,0.4,0,0.5,0C48.8,43.9,48.9,43.9,49.1,43.9z
			 M44.6,44.6c-0.6,0.2-1.1,0.3-1.8,0.6C43.4,44.9,44,44.7,44.6,44.6z M47.6,44c-0.3,0-0.6,0.1-0.9,0.1C47,44,47.3,44,47.6,44z
			 M46.2,44.2c-0.3,0.1-0.7,0.2-1.1,0.3C45.5,44.4,45.8,44.3,46.2,44.2z M25,57.1c0.1-0.1,0.1-0.1,0.2-0.2C25.1,57,25,57.1,25,57.1z
			 M25.4,56.7c0.1-0.1,0.2-0.2,0.3-0.2C25.6,56.6,25.5,56.6,25.4,56.7z M15,69.3c0,0,0-0.1,0-0.2C15,69.2,15,69.2,15,69.3z M25.2,82
			c0.1,0,0.2,0,0.2,0c0,0-0.1,0-0.1,0C25.2,82,25.2,82,25.2,82z M25.4,82C25.4,82,25.4,81.9,25.4,82C25.4,81.9,25.4,81.9,25.4,82
			C25.4,82,25.4,82,25.4,82C25.4,82,25.4,82,25.4,82C25.4,82,25.4,82,25.4,82C25.4,82,25.4,82,25.4,82C25.4,82,25.4,82,25.4,82z
			 M26.2,81.9c0.2,0,0.4,0,0.6,0C26.6,81.9,26.4,81.9,26.2,81.9z M27,81.9c0.2,0,0.3,0,0.5,0c-0.1,0-0.2,0-0.3,0
			C27.1,81.9,27,81.9,27,81.9z M28.2,81.8c-0.1,0-0.1,0-0.2,0.1C28,81.9,28.1,81.8,28.2,81.8z M27.9,81.9c-0.1,0-0.2,0-0.4,0
			C27.6,81.9,27.8,81.9,27.9,81.9z M39,82.3C39,82.4,39,82.4,39,82.3C39,82.4,39,82.4,39,82.3C39,82.4,39,82.4,39,82.3
			C39,82.4,39,82.4,39,82.3z M39.1,82.4c0,0,0.1,0,0.1,0.1C39.2,82.5,39.1,82.5,39.1,82.4z M39.6,82.6c0.1,0,0.2,0.1,0.4,0.1
			C39.8,82.7,39.7,82.6,39.6,82.6z M39.3,82.5c0.1,0,0.1,0,0.2,0.1C39.4,82.6,39.3,82.5,39.3,82.5z M44.4,96.1c0,0-0.1,0.1-0.1,0.1
			C44.3,96.1,44.3,96.1,44.4,96.1z M44.7,95.7c0,0-0.1,0.1-0.1,0.1C44.6,95.8,44.6,95.8,44.7,95.7z M44.1,96.3
			C44.1,96.3,44.1,96.3,44.1,96.3C44.1,96.3,44.1,96.3,44.1,96.3z M21.2,107.3c0.3-0.1,0.6-0.1,0.8-0.2
			C21.7,107.1,21.5,107.2,21.2,107.3z M19.4,107.5c0.3,0,0.5-0.1,0.8-0.1C19.9,107.5,19.6,107.5,19.4,107.5z M31.1,104.1
			c-0.3,0.1-0.6,0.2-0.8,0.3C30.6,104.3,30.8,104.2,31.1,104.1z M28.6,105.1c-0.3,0.1-0.6,0.2-0.9,0.3
			C28,105.3,28.3,105.2,28.6,105.1z M26.2,105.9c-0.3,0.1-0.6,0.2-0.9,0.3C25.6,106.1,25.9,106,26.2,105.9z M24,106.6
			c-0.3,0.1-0.6,0.2-0.9,0.2C23.4,106.7,23.7,106.7,24,106.6z M18.5,107.6c-0.2,0-0.5,0-0.7,0C18,107.7,18.2,107.6,18.5,107.6z
			 M16.2,107.6C16.2,107.6,16.2,107.6,16.2,107.6C16.2,107.6,16.2,107.6,16.2,107.6z M14.6,107.5C14.6,107.4,14.6,107.4,14.6,107.5
			C14.6,107.4,14.6,107.4,14.6,107.5c0,0-0.1,0-0.2-0.1C14.5,107.4,14.6,107.4,14.6,107.5z M14,107.3c-0.1,0-0.3,0-0.5-0.1
			C13.7,107.2,13.8,107.3,14,107.3z M14.3,107.4c-0.1,0-0.2,0-0.3-0.1C14.2,107.3,14.3,107.3,14.3,107.4z M21.7,92.4L21.7,92.4
			L21.7,92.4L21.7,92.4L21.7,92.4L21.7,92.4C21.7,92.4,21.7,92.4,21.7,92.4z M21.5,92.5L21.5,92.5L21.5,92.5L21.5,92.5z M22.3,92
			C22.3,92,22.3,91.9,22.3,92C22.3,91.9,22.3,92,22.3,92z M25.8,90.1C25.8,90.2,25.8,90.1,25.8,90.1C25.8,90.1,25.8,90.1,25.8,90.1
			C25.8,90.1,25.8,90.1,25.8,90.1C25.8,90.1,25.8,90.1,25.8,90.1C25.8,90.1,25.8,90.1,25.8,90.1C25.8,90.1,25.8,90.1,25.8,90.1z
			 M29.9,89.6C29.9,89.7,29.8,89.7,29.9,89.6C29.8,89.7,29.9,89.7,29.9,89.6z M29.2,89.4L29.2,89.4L29.2,89.4l0.2-0.1L29.2,89.4
			l0,0.1l0.1,0.1v0l-0.1-0.1L29.2,89.4z M25.9,91.7c0.4-0.2,0.8-0.4,1.1-0.6C26.7,91.3,26.3,91.5,25.9,91.7z M30,89.5
			C30.1,89.5,30.1,89.5,30,89.5C30.1,89.5,30.1,89.5,30,89.5z M30.3,89.5c0,0,0.1,0,0.1,0C30.4,89.5,30.3,89.5,30.3,89.5z
			 M29.2,88.4c-0.1,0-0.2,0-0.3,0.1C29,88.4,29.1,88.4,29.2,88.4z M28.7,88.6c0,0-0.1,0.1-0.1,0.1C28.6,88.6,28.6,88.6,28.7,88.6z
			 M28.8,88.5c-0.1,0-0.1,0-0.1,0.1C28.7,88.5,28.8,88.5,28.8,88.5z M28.5,88.7C28.5,88.7,28.5,88.7,28.5,88.7
			C28.5,88.7,28.5,88.7,28.5,88.7C28.5,88.7,28.5,88.7,28.5,88.7C28.5,88.7,28.5,88.7,28.5,88.7c-0.1,0-0.2,0.1-0.3,0.1
			C28.3,88.8,28.4,88.7,28.5,88.7z M25.9,90c0,0,0.1-0.1,0.1-0.1C26,90,25.9,90,25.9,90z M26.1,89.9c0.1,0,0.2-0.1,0.2-0.2
			C26.2,89.8,26.1,89.9,26.1,89.9z M26.4,89.7c0.1,0,0.1-0.1,0.2-0.1C26.6,89.6,26.5,89.7,26.4,89.7z M26.8,89.5
			c0.1,0,0.1-0.1,0.2-0.1C26.9,89.4,26.9,89.5,26.8,89.5z M27.2,89.3c0.1,0,0.2-0.1,0.3-0.1C27.4,89.2,27.3,89.3,27.2,89.3z
			 M27.7,89.1c0.1,0,0.2-0.1,0.3-0.1C27.9,89,27.8,89,27.7,89.1z M25.8,90.1c0,0,0-0.1,0-0.1C25.8,90,25.8,90.1,25.8,90.1z
			 M22.5,91.7C22.5,91.7,22.5,91.7,22.5,91.7C22.5,91.7,22.5,91.7,22.5,91.7z M21.6,92.3L21.6,92.3l-0.4,0L21.6,92.3z M19.3,93.5
			C19.3,93.5,19.3,93.5,19.3,93.5C19.3,93.5,19.3,93.5,19.3,93.5z M19.5,93.4C19.5,93.4,19.5,93.4,19.5,93.4
			C19.5,93.4,19.5,93.4,19.5,93.4z M19.7,93.3C19.8,93.3,19.8,93.3,19.7,93.3C19.8,93.3,19.8,93.3,19.7,93.3z M14,109.6
			c0.1,0,0.1,0,0.2,0c0,0,0,0-0.1,0C14,109.6,14,109.6,14,109.6z M14.2,109.5C14.3,109.5,14.3,109.5,14.2,109.5
			C14.3,109.5,14.3,109.5,14.2,109.5z M15.8,109.8C15.8,109.8,15.8,109.8,15.8,109.8C15.8,109.8,15.8,109.8,15.8,109.8
			C15.8,109.8,15.8,109.8,15.8,109.8c0,0,0.1,0,0.2,0C15.9,109.8,15.8,109.8,15.8,109.8C15.8,109.8,15.8,109.8,15.8,109.8z
			 M16.7,109.9c0.1,0,0.1,0,0.2,0c0,0-0.1,0-0.1,0C16.8,109.9,16.8,109.9,16.7,109.9z M17.4,109.8c-0.1,0-0.2,0-0.3,0
			C17.2,109.9,17.3,109.8,17.4,109.8z M18.1,109.8c0.2,0,0.4,0,0.7-0.1C18.5,109.7,18.3,109.8,18.1,109.8z M17.6,109.8
			c0.1,0,0.2,0,0.4,0C17.8,109.8,17.7,109.8,17.6,109.8z M23.2,109.3c0.2-0.1,0.5-0.2,0.7-0.2C23.7,109.2,23.4,109.2,23.2,109.3z
			 M24.1,109c0.1,0,0.3-0.1,0.4-0.1C24.4,108.9,24.3,109,24.1,109z M24.7,108.8c0.1,0,0.2-0.1,0.3-0.1
			C25,108.7,24.8,108.8,24.7,108.8z M25.2,108.6c0.1,0,0.2-0.1,0.3-0.1C25.4,108.6,25.3,108.6,25.2,108.6z M25.7,108.5
			c0.1,0,0.1-0.1,0.2-0.1C25.8,108.4,25.7,108.5,25.7,108.5z M26,108.4c0.1,0,0.1,0,0.2-0.1C26.1,108.3,26,108.4,26,108.4z
			 M26.2,108.3c0.1,0,0.1,0,0.1-0.1C26.3,108.2,26.3,108.3,26.2,108.3z M26.4,108.2C26.4,108.2,26.4,108.2,26.4,108.2
			C26.4,108.2,26.4,108.2,26.4,108.2C26.4,108.2,26.4,108.2,26.4,108.2C26.4,108.2,26.4,108.3,26.4,108.2
			C26.4,108.3,26.4,108.2,26.4,108.2C26.4,108.2,26.4,108.2,26.4,108.2z M29.4,107.3c0.3-0.1,0.7-0.2,1-0.3
			C30.1,107,29.8,107.1,29.4,107.3z M33.6,105.7c0.1,0,0.1-0.1,0.1-0.1C33.7,105.6,33.6,105.6,33.6,105.7z M30.7,106.8
			c0.2-0.1,0.4-0.1,0.6-0.2C31.1,106.7,30.9,106.8,30.7,106.8z M31.5,106.5c0.2-0.1,0.3-0.1,0.4-0.2
			C31.8,106.4,31.7,106.5,31.5,106.5z M32.2,106.3c0.1,0,0.2-0.1,0.3-0.1C32.5,106.2,32.4,106.2,32.2,106.3z M32.8,106
			c0.1,0,0.2-0.1,0.3-0.1C33,105.9,32.9,106,32.8,106z M33.3,105.8c0.1,0,0.1-0.1,0.2-0.1C33.4,105.8,33.3,105.8,33.3,105.8z
			 M33.8,105.5C33.8,105.5,33.8,105.5,33.8,105.5C33.8,105.5,33.8,105.5,33.8,105.5C33.8,105.5,33.8,105.5,33.8,105.5
			C33.8,105.5,33.8,105.5,33.8,105.5C33.8,105.5,33.8,105.5,33.8,105.5C33.8,105.5,33.8,105.5,33.8,105.5z"/>
		<path class="st0" d="M138.5,50.3l0-0.1l-0.1-0.2l-0.2,0.1l-0.1,0l-0.1,0l0,0.1c-0.1,0.2-0.2,0.4-0.2,0.4c-0.1-0.2,0-0.5,0.2-0.8
			l0.1-0.1l0-0.1l-0.1-0.2l-0.1-0.2l-0.2,0.1l0,0c0,0,0,0,0-0.1l0-0.1l0,0c0.2-0.2,0.3-0.4,0.2-0.6l-0.1-0.2l-0.2,0.1l-0.1,0
			c-0.1,0-0.3,0.1-0.3,0.5l0,0c-0.3,0.2-0.5,0.6-0.8,1.2l-0.1,0l-0.3,0l0.1,0.3c0,0.1,0,0.2,0,0.2l0-0.1l-0.1,0.2c0,0,0,0,0,0
			l-0.2,0.1l0.1,0.2c0,0,0,0,0,0c-0.8,1.5-1.2,1.7-1.2,1.7l-0.1,0l0,0.1c-4,6-5.3,7.5-5.8,7.6l-0.2,0.1c-0.1,0-0.2,0-0.2,0
			c-0.1,0-0.3,0-0.4-0.3c-0.1-0.8-0.1-1.3-0.1-1.6l0-0.3l-0.1,0c-0.1-2.3,0.1-2.7,0.2-2.8l0.1-0.1l0-0.1c0-0.1-0.1-0.1-0.1-0.2
			l0.1-0.6l0.1-0.3l-0.1,0c0-0.1,0.1-0.2,0.2-0.3l0.1-0.1l-0.1-0.1l-0.1-0.1c0.3-0.7,0.4-1.6,0.4-2.6l0-0.1l0-0.1l-0.1-0.1l0,0
			l-0.1-0.2c-0.2-0.6-0.6-1.1-1.3-1.6l-0.1-0.1l-0.1,0.1c-0.3,0.2-0.4,0.2-0.4,0.2l-0.1,0l0,0c-1.4,1.7-1.8,2.3-1.8,2.6
			c-0.7,0.8-0.8,1.1-0.8,1.3c-0.5,0.9-1.3,2.3-2.4,4.4c0.1-0.3,0.2-0.8,0.3-1.3c0.1-0.8,0.2-1.6,0.6-2.4l0-0.1l0-0.1
			c0-0.1-0.1-0.1-0.1-0.2c0.1-0.2,0.1-0.4,0.1-0.5c0.2-0.4,0.2-1.1,0.1-2l0.1,0l-0.1-0.2l0-0.1l0,0c-0.1-0.2-0.2-0.3-0.3-0.4
			l-0.1-0.2c-0.3-0.6-0.7-1-1.2-1c-0.1,0-0.2,0-0.3,0l-0.5,0.1l-0.1,0l0,0l-0.6,0.6c-0.5,0.3-0.7,0.6-0.7,0.9l-0.1,0l-0.1,0.1
			c-1.4,1.8-2.5,3.3-3.1,4.6c-0.5,0.9-0.6,1.1-0.7,1.1l-0.1,0l0,0.1c-0.6,1.6-1.2,2.9-1.8,4c0.1-0.5,0.2-1.1,0.3-1.8l0-0.1l-0.1-0.1
			l0,0l0.1-0.1l0.1-0.1l0-0.1c0.2-2.5,0.3-3.3,0.3-3.5l0.1,0l-0.1-0.2c-0.1-0.4-0.6-0.9-1.6-1.5l-0.1,0l-0.1,0l-0.1,0l-0.1,0l0,0.1
			c-0.1,0.3-0.2,1.1-0.4,2.3l0,0.3l0.1,0c0,0.1,0,0.1,0,0.3c-0.9,1.4-1.1,1.6-1.2,1.7l-0.2,0.1l0,0.1L109,58l0,0l0,0l0.1,0.3
			c0,0,0,0.1,0,0.3c-0.5,0.4-0.8,0.7-1,1.1l-4.1,4.8c-0.7,0.5-1.1,0.9-1.4,1.2c0,0,0,0,0,0c0,0-0.1,0-0.1,0l-0.1-0.2l-0.2,0.3
			c0-0.1-0.1-0.1-0.1-0.2l0.2-1.5l0-0.2c0,0,0,0,0,0c0-0.1,0-0.2,0-0.4l0-0.1l0.2-0.6l0.1-0.4l-0.3,0.1l-0.1-0.3l0,0
			c0.1-0.1,0.2-0.3,0.2-0.4l0.1,0.2l0.3-0.3c0.2-0.2,0.2-0.4,0.2-0.6l0-0.1l0-0.1c0.3-0.3,0.5-0.9,0.6-1.9l0-0.1l0-0.1l-0.1-0.4
			l-0.1-0.2l-0.2,0.1c0,0,0,0-0.1,0l0.1-0.3l0.1-0.3l-0.3,0.1c0,0,0,0,0,0c-0.1,0-0.1-0.1-0.3-0.2l-0.1-0.1l0-0.2l0-0.2l-0.2,0
			c-0.2,0-0.3,0-0.4,0c-0.1,0-0.2,0-0.3,0.1l0,0l0,0c-0.7,1-1.2,1.6-1.4,2.1l-0.2,0.1c-0.1,0.1-0.2,0.2-0.2,0.4
			c-0.6,0.5-0.9,0.9-0.9,1.2c-0.1,0.2-0.2,0.4-0.3,0.5l0,0l0,0l-0.1,0l-0.2,0.1l0.1,0.2l0,0l-1.4,2.1c0,0,0,0,0,0h0l-0.1,0L96.5,64
			l0.1,0.2l0,0.1c-0.2,0.2-0.5,0.4-0.4,0.8c-0.4,0.6-0.6,0.9-0.7,1.1l0,0l-0.1,0l-0.1,0l-0.3,0.1l0.2,0.2l0,0
			c-0.1,0.2-0.3,0.5-0.6,1c-1,1.7-1.7,2.8-2.1,3.2l-0.2,0c0.2-1.4,0.2-1.7,0.2-1.9c0.2-0.6,0.3-1.1,0.3-1.5c0.1,0,0.2-0.1,0.2-0.2
			c0-0.1,0-0.2,0-0.3l0-0.1c0.1-0.2,0.3-0.6,0.5-1.4l0-0.1l0-0.1c0-0.1-0.1-0.1-0.1-0.2c0,0,0,0,0-0.1l0.1,0l0.6,0.2l-0.3-0.5l0,0
			c0.5-2.1,0.4-2.6,0.4-2.8c-0.1-0.2-0.2-0.5-0.3-0.7l0-0.2c0-0.1-0.1-0.2-0.2-0.2l0-0.1c-0.1-0.2-0.2-0.3-0.3-0.3
			c-0.2-0.3-0.4-0.4-0.6-0.4h0l0,0L92,60.2l-0.2,0.1l0,0.2c0,0,0,0.1,0,0.1l0,0l-0.2,0.1l0.1,0.2c0,0.1,0.1,0.3-0.5,0.4l-0.1,0
			l0,0.1l-0.2,0.5l-0.2,0l-0.3,0l0,0.1l-0.3,0l0.1,0.3l0,0c-0.1,0.1-0.4,0.5-2.3,1.8c0.1-0.3,0.1-0.6,0.1-0.9L88,62.4l-0.1-0.5l0,0
			l0,0l-0.1-0.2c-0.6-1.3-1.2-1.9-1.7-1.9c-0.1,0-0.1,0-0.2,0l0,0l0,0l-0.1,0.1c0,0,0,0,0,0l0,0l0-0.3l-0.3,0.1l-0.1,0
			c-0.1,0-0.2,0.1-0.3,0.2l-0.1,0c-0.2,0.1-0.3,0.2-0.3,0.4l0,0l-0.1,0c-0.8,0.4-1.3,0.7-1.5,1l-0.3-0.1l-0.1,0l-0.1,0.1l-0.3,0.3
			l-0.1,0l-0.1,0l-0.2,0.1l0.1,0.2l0.1,0.3l0,0l-0.5,0.6l-0.1,0.1l0,0.1c0,0,0,0,0,0l-0.2,0c-0.1,0-0.2,0.1-0.3,0.2l0,0
			c-0.3,0.1-0.4,0.3-0.3,0.5l0,0l-0.1,0l-0.1,0l-0.1,0.1l-2.7,3.8l-0.1,0.1l0,0.1l0,0c-0.1,0-0.2,0.1-0.2,0.4c0,0,0,0,0,0.1
			l-0.1,0.1c-0.3,0.4-0.5,0.6-0.7,0.6l-0.1,0l0.1-0.3l-0.2,0c0-0.4,0-1-0.2-1.7l0,0l0,0l-0.1-0.2c0-0.1-0.1-0.2-0.1-0.2l0-0.1l0,0
			l0,0l0-0.2l-0.1-0.2l0,0l0,0l0-0.1l0-0.2l-0.1-0.2l-0.2,0.1l-0.1,0l-0.1-0.4l-0.1-0.2l-0.2,0.1l-0.2,0c-0.1,0-0.2,0.1-0.2,0.1
			l0-0.1l-0.1,0c0,0-0.1-0.1-0.1-0.1l-0.1-0.1l-0.1,0l-0.5,0.1l-0.2,0.1l0.1,0.2c0,0.1,0.1,0.1,0.1,0.2l-0.1,0.5l-0.1,0.3l0.2-0.1
			c0,0.1-0.1,0.2-0.2,0.4c-1.7,2.8-1.7,3.2-1.7,3.4l-0.3,0.1l-0.2,0.1l0.1,0.2l0,0.2l0,0c-0.4,0.4-0.8,1-1.2,1.7
			c-0.7,1.1-1.3,2.1-1.7,2.8c-0.9,1-1.8,1.9-2.6,2.4L66,77.6l-0.2,0.2L65.6,78L65,78.2l-0.2-0.6c0,0,0-0.1,0.1-0.1l0.2-0.1l0-0.2
			c0-0.1-0.1-0.3-0.3-0.5c0-0.1,0-0.1,0-0.2c0-0.1,0.1-0.1,0.2-0.1l0.2-0.1l-0.1-0.2l0-0.2l0,0l0,0L65,75.9c0.1-0.2,0.2-0.6,0.3-1.4
			l0.3,0.1l-0.1-0.3c-0.2-0.6,0.1-0.8,0.1-0.8l0.1-0.1l0-0.1l-0.1-0.4l0.1-0.5l0-0.1l0-0.1c0.1-0.2,0.2-0.5,0.3-1.1l0,0l0,0
			l-0.2-0.8l0-0.1l-0.1,0c-0.8-0.6-1.1-0.7-1.2-0.7h0l-0.1,0L64,69.4c-0.5,0.1-1.5,1-4.9,7.3c-2.1,3.9-3.8,6.1-4.9,6.6l-0.2-0.7
			L54,81.8l0,0l0,0l0,0l0-0.2l0,0l0.1-0.1l0.1-0.1l0-0.1c0-0.1-0.1-0.1-0.1-0.2l0.2,0l0-0.3c-0.1-0.8,0-1,0-1l0.2-0.1l-0.1-0.2
			c0-0.1-0.1-0.2-0.2-0.2c0.1-1.3,0.3-1.4,0.4-1.4l0.2-0.1l-0.1-0.2l0-0.1l0-0.1c0.3-0.3,0.5-0.9,0.6-1.8l0-0.3l-0.2,0.1
			c0.2-0.2,0.6-0.8,1-2.1l0.1-0.4l-0.1,0c0.4-0.8,0.6-0.9,0.6-0.9l0.2-0.1l-0.1-0.2c0-0.1-0.1-0.1-0.1-0.2c2.4-4.4,3.7-5.6,4.3-5.7
			c0.3-0.1,0.5-0.1,0.7-0.1c0.3,0,0.6,0.1,0.9,0.2c0.3,1,1,1.8,2,2.5l0.1,0l0.1,0c0.6-0.2,0.6-1.1,0.6-1.8l0,0l0,0
			c-0.5-1.8-2-2.8-4.4-3.1l0,0l0,0c-2.1,0.6-4.1,2.6-5.9,6c-2.9,5.9-4,10.5-3.4,13.6l0.1,0.5l0,0.1l0,0l0.4,0.3
			c0.4,0.8,1.1,1.3,2,1.3c0.3,0,0.6-0.1,1-0.1l0.2,0c1.8-0.5,4.2-3.6,7.3-9.5l0.1,0.2l0.1,0.2l0.2-0.1c0,0,0,0,0,0c0,0,0,0.1,0,0.1
			L63,76l-0.3,0l0.1,0.3c0,0,0,0.2-0.2,0.9l0,0.1l0,0.1c0.5,2,1.5,3,2.8,3c0.3,0,0.5,0,0.8-0.1l0.2,0c1.4-0.4,2.8-1.5,4.1-3.4
			c2.8-4.3,3.3-5.5,3.4-5.9c0,0,0,0,0,0c-0.1,2.9-0.5,6-1.2,9.3c-1,4.5-1.5,7-1.5,7.5l-0.1,0l0,0.1l-0.1,1c-0.3,0.2-0.6,1-0.8,3.6
			l0,0l-0.3,0l0.1,0.3c0,0.1,0,1-0.4,5.1l0,0.3l0,0c-0.1,0.5-0.1,1,0,1.6l0,0.2l0,0c0,0.2,0,0.4,0,0.7l0,0.2l0.2,0
			c0,0,0.1,0.1,0.2,0.3c0,0.1,0,0.2,0,0.3l0.1,0.2l0.2-0.1l0,0c0.1,0.2,0.3,0.5,0.5,0.7l0.1,0.1l0.1,0l0.7-0.2l0.1,0l0,0l0.3-0.3
			c0.2-0.1,0.3-0.4,0.6-1.7c0.1-1.4,0.3-1.7,0.3-1.7l0.2-0.1L73,97.9c0-0.1-0.1-0.2-0.2-0.3c0.1-0.2,0.3-0.6,0.6-1.5l0-0.1l0-0.1
			c0-0.1-0.1-0.1-0.1-0.2l0.1-0.6l0.1-0.3l0,0c0,0,0.1-0.1,0.1-0.2c0.1-0.2,0.1-0.4,0-0.6c0.4-1.1,0.5-1.9,0.4-2.3l-0.1-0.2l0,0l0,0
			l-0.1-0.1c0.3-0.2,0.4-0.5,0.4-0.7l0,0l0,0L74,90.3c0.1,0,0.1-0.1,0.2-0.2l0.1-0.1l0-0.1c0-0.1-0.1-0.2-0.2-0.3
			c0,0,0.1-0.1,0.2-0.2l0.2-0.1l-0.2-0.2l0,0c0.1-0.1,0.2-0.3,0.2-0.7l0-0.1l-0.1-0.1l-0.1-0.1c0.2-1.1,0.3-1.4,0.3-1.6l0.1,0
			l-0.1-0.2c0-0.1-0.1-0.2-0.2-0.3c0.2-0.3,0.4-1.6,1.3-8.7l0.2,0.1L76,77.1c0-0.2,0-0.3,0-0.4l0.1-0.4l-0.2,0.1
			c0-0.5,0.3-0.6,0.3-0.6l0.3-0.1l-0.2-0.2l-0.1-0.1c0.4-0.2,0.4-0.5,0.3-0.6c0.1-0.1,0.2-0.4,0.2-0.8l0.1-0.1
			c0.1-0.2,0.3-0.3,0.4-0.3l0.2-0.1l-0.1-0.2l0-0.1l0-0.1c0.4-0.4,0.5-0.4,0.5-0.4l0.2-0.1l0-0.2c0-0.1-0.1-0.1-0.1-0.2
			c0.1-0.5,0.3-0.6,0.3-0.6l0.2-0.1l0-0.1l0.2-0.1l0.2-0.1l-0.1-0.2c0-0.1-0.1-0.1-0.1-0.2c0,0,0.1-0.1,0.1-0.1l0,0.1l0.3-0.3
			l0.3-0.4l0.1-0.1l0-0.1c-0.1-0.2-0.1-0.4,0-0.6l0,0.1l0.2-0.3c0.1-0.2,0.3-0.3,0.4-0.3l0.2-0.1l-0.1-0.2l0-0.1l0-0.1l0,0l-0.2-0.2
			l0.1,0l0.2-0.1l0.2-0.1L80.1,68l0-0.1l0.1,0l0.3,0.1l-0.1-0.3l0,0l0.2-0.1l-0.1-0.2l0,0l2.6-3.1c0.6-0.4,0.8-0.7,0.9-0.9l0.1,0
			l0.1,0l0.1-0.1c0.2-0.2,0.4-0.4,0.4-0.5l0,0.1l0.2-0.2l0.2-0.1l0.6-0.2l0.1,0c0.1,0.4,0,1.2-0.5,2.7l-0.2,0.1
			c-0.9,0.6-1.6,1.2-2.2,1.9l-0.2,0l-0.3,0l0.1,0.3c-1,0.8-1.2,1.1-1.3,1.3c-2,1.7-2.4,2.2-2.4,2.4c-0.7,0.8-1.1,1.5-1.4,2.1l0,0.1
			l0.1,0.1l0.1,0.1c-0.1,0.2-0.1,0.4-0.1,0.9l0,0l0,0c0,0.1,0.1,0.3,0.7,1.1l-0.1,0l0.1,0.2l0.1,0.5l0.1,0.2l0.2-0.1l0.1,0l0,0l0,0
			l0,0l0.2-0.1c0.1,0,0.2-0.1,0.4-0.2l0.5,0l0.1,0l0,0l0.2-0.1c0.1,0,0.3-0.1,0.4-0.2l0,0.1l0.2-0.1c0.1,0,0.1,0,1.3-1l0,0.1
			l0.2-0.1l0.1,0l0.2-0.1l-0.1-0.2c0,0,0,0,0.1,0l0.3-0.1l-0.2-0.2c0.2-0.1,0.3-0.2,0.4-0.2c0.1-0.1,0.1-0.2,0.2-0.3l0.1-0.1
			c0.3-0.2,0.5-0.4,0.6-0.7l0.1,0.3l0.2-0.6c0.1-0.4,0.4-0.8,1-1.1l0.2-0.1l-0.2-0.2L85.2,71l0,0c0.4-0.7,0.5-0.7,0.6-0.7l0.2-0.1
			l0-0.1c0.1-0.1,0.2-0.1,0.2-0.2c0-0.1,0.1-0.2,0-0.4l0,0c0.1-0.4,0.2-0.6,0.4-0.6l0.2-0.1l-0.1-0.2c0-0.1-0.1-0.1-0.1-0.2
			c0.1-0.3,0.2-0.6,0.5-0.9c1.5-1.1,2.7-2,3.7-2.8c-0.7,2.5-0.9,4.2-0.7,5.3l0,0.1l0,0l0.1,0.1c0,0.2,0,0.5,0.2,1.2l0,0l0,0l0.1,0.1
			c0,0.1,0,0.3,0.1,0.4c0.1,0.3,0.4,0.6,0.9,1c0.2,0.3,0.8,0.5,1.6,0.5c0.1,0,0.1,0,0.2,0l0.1,0l0,0c1-0.6,1.4-1,1.4-1.3
			c0.9-1.1,1-1.5,1-1.8c0.3-0.3,0.5-0.7,0.6-1l0.1,0l0.2-0.1l0.2-0.1l0-0.2c0,0,0-0.1,0-0.2c0.1,0,0.1-0.1,0.2-0.2l0.1-0.1l0-0.1
			l0.1,0l-0.1-0.3c0,0,0.1-0.1,0.2-0.3c0.3-0.4,0.4-0.7,0.5-0.9l0.2,0l0.1,0l0.2-0.1l0,0l0.2,0l-0.1-0.3l0,0
			c0.1-0.1,0.3-0.2,0.2-0.5c0.3-0.2,0.5-0.5,0.6-1l0.1,0l0.1-0.1l0.6-1.2l0,0c0,0.6,0.1,1.6,0.3,2.8c0.4,1.3,1.4,1.9,2.8,1.9
			c0.2,0,0.4,0,0.6,0l0.2,0l0,0l0.1,0l0.1,0c0.9-0.6,1.5-1.2,1.8-1.6l0.1,0l0.3,0.1l-0.1-0.3c0,0,0,0,0,0l0.1,0
			c0.2-0.1,0.3-0.3,0.3-0.7c0.1,0,0.1-0.1,0.2-0.1c0,0,0.1,0,0.1,0l0.1,0l0.1-0.1c0.6-0.8,0.7-0.9,0.6-1.1l0,0h0l0.1,0l0.1,0l0,0
			l0,0c0,0,0,0,0.1,0h0l0.1,0l0.2-0.1l-0.1-0.1l0.1,0l0.2-0.1l-0.1-0.2c0,0,0,0,0,0l0,0l0,0c0.1-0.1,0.2-0.2,0.2-0.4l0.2,0l0.1,0
			l0.3-0.1l-0.2-0.2c0,0,0,0,0,0c0,0,0,0,0-0.2l0,0l0.1-0.1c0.1-0.1,0.1-0.2,0.1-0.3l0.3,0.1l0.3,0.1c-0.3,2.3-0.4,3.8-0.3,4.3
			l0.1,0.2l0.2-0.1c0,0,0.1,0,0.1,0c0,0,0,0,0.1,0c-0.1,0.1-0.1,0.2,0,0.3l0,0.1l0,0.1l0,0l0.5,0.5l0.1,0.1l0.1,0
			c0.1,0,0.1-0.1,0.2-0.1l0.1,0l0,0l0,0l0.2-0.1c0.2-0.1,0.6-0.3,1.1-0.7l0,0l0-0.1c0.7-2.1,1.3-3.8,2-5.1l0-0.1l0,0
			c0-0.2,0.3-0.8,1.6-3.6c0.1-0.1,0.3-0.3,0.6-1.1c1.2-1.8,1.5-2.3,1.5-2.5c0.6-0.7,0.9-1,1-1.3l0.1,0l0.3,0.1l-0.1-0.3l0-0.1
			c0.4-0.4,0.6-0.7,0.8-0.9c-0.1,0.4-0.2,1-0.5,2.1l0,0.1l0,0.1l0,0.2l-0.1,0l0.1,0.2l0,0c-0.1,0.2-0.2,0.6-0.4,1.7l-0.1,0.3l0,0
			l-0.2,0.6c-0.8,2.9-1.2,4.6-1,5.2l0,0l0,0l0.3,0.4c0,0.1,0,0.1,0,0.2l0,0.1c0.2,0.6,0.6,0.9,1.2,0.9l0.3,0l0-0.1l0,0l0,0l0.2-0.1
			c0.1,0,0.2-0.1,0.4-0.2c0.2-0.1,0.5-0.4,1.3-2.1c1-2.2,1.3-2.6,1.3-2.6l0.1,0l0-0.1c0.6-1.5,1.2-2.8,1.9-3.9
			c0.4-0.8,0.7-1.5,0.9-1.9l-0.3,2.1l0,0.1l0.1,0.1l0.1,0.1c-0.1,0.2-0.2,0.6-0.3,1.6l0,0l0,0c0,0.1,0.1,0.2,0.1,0.3
			c-0.1,0.2-0.1,0.8,0.1,2l0,0l0,0l0.3,0.6c-0.1,0.1-0.1,0.2,0,0.3l0,0l0,0l0.5,0.9c0.5,1,1.3,1.5,2.3,1.5c0.3,0,0.7-0.1,1-0.2
			l0.2-0.1l0-0.1l0.1,0l0.1,0l0.1-0.1c1.1-0.8,2.7-3.1,4.8-6.8l0.1,0.2l0.3-0.4c1.8-2.8,1.9-3.3,1.9-3.4l0.2,0l0.2-0.1l-0.1-0.2
			l0-0.1l0,0c0.2-0.2,0.4-0.5,0.4-0.7l0,0l0-0.1C138.5,50.7,138.5,50.4,138.5,50.3z M135.1,55.6C135.1,55.5,135.1,55.5,135.1,55.6
			C135.1,55.5,135.1,55.5,135.1,55.6z M135.9,51.1C135.8,51.1,135.8,51.1,135.9,51.1C135.8,51.1,135.8,51.1,135.9,51.1z M135.8,51
			C135.9,51,135.9,51,135.8,51C135.9,51,135.9,51,135.8,51C135.9,51,135.9,51,135.8,51z M137.2,51.8
			C137.2,51.8,137.2,51.8,137.2,51.8C137.2,51.8,137.2,51.8,137.2,51.8z M137.5,51L137.5,51C137.5,51,137.5,51,137.5,51
			C137.5,51,137.5,51,137.5,51z M137.1,49.6C137.1,49.6,137.1,49.6,137.1,49.6C137.1,49.6,137.1,49.6,137.1,49.6
			C137.1,49.6,137.1,49.6,137.1,49.6z M137.1,49.5C137.1,49.5,137.1,49.5,137.1,49.5C137.1,49.5,137.1,49.5,137.1,49.5z M135.8,51
			C135.8,51,135.8,50.9,135.8,51C135.8,50.9,135.8,51,135.8,51z M127.5,55.3C127.5,55.3,127.5,55.3,127.5,55.3
			C127.5,55.3,127.5,55.3,127.5,55.3C127.5,55.3,127.5,55.3,127.5,55.3z M127.7,60.6C127.7,60.6,127.7,60.6,127.7,60.6
			C127.7,60.6,127.7,60.6,127.7,60.6z M128,60.7C128,60.7,128,60.7,128,60.7C128,60.7,128,60.7,128,60.7z M128.1,62.7
			c0,0-0.1,0-0.1,0C128,62.7,128.1,62.7,128.1,62.7z M127.6,60.5C127.6,60.5,127.5,60.5,127.6,60.5
			C127.5,60.5,127.6,60.5,127.6,60.5z M127.5,62.5C127.5,62.5,127.5,62.5,127.5,62.5C127.5,62.5,127.5,62.5,127.5,62.5z M127.5,55.3
			C127.5,55.3,127.6,55.4,127.5,55.3C127.6,55.4,127.5,55.3,127.5,55.3z M119.3,56.6C119.3,56.6,119.4,56.6,119.3,56.6
			C119.4,56.6,119.3,56.6,119.3,56.6z M120,54.9C120,54.9,120,54.9,120,54.9C120,54.9,120.1,54.9,120,54.9
			C120.1,54.9,120.1,54.9,120,54.9z M120,54.9C120,54.9,119.9,54.9,120,54.9C119.9,54.9,120,54.9,120,54.9z M120.4,58.7
			C120.4,58.7,120.4,58.7,120.4,58.7C120.4,58.7,120.4,58.7,120.4,58.7z M121.2,50.2C121.2,50.2,121.3,50.2,121.2,50.2
			C121.2,50.2,121.2,50.2,121.2,50.2C121.2,50.2,121.2,50.2,121.2,50.2z M121.6,53.5C121.7,53.5,121.7,53.5,121.6,53.5
			C121.6,53.5,121.6,53.5,121.6,53.5C121.6,53.5,121.6,53.5,121.6,53.5z M121.7,53.5C121.7,53.5,121.7,53.6,121.7,53.5
			C121.7,53.6,121.7,53.5,121.7,53.5z M121.6,50.4c0,0.1,0.1,0.1,0.1,0.2C121.7,50.6,121.6,50.5,121.6,50.4z M121.5,50.4
			c0,0-0.1-0.1-0.1-0.1C121.5,50.3,121.5,50.3,121.5,50.4z M121.3,50.2C121.3,50.2,121.4,50.2,121.3,50.2
			C121.4,50.2,121.3,50.2,121.3,50.2z M121,49.6c0.1,0.1,0.2,0.2,0.3,0.4C121.2,49.9,121.1,49.8,121,49.6z M121,49.5
			c-0.1-0.1-0.1-0.1-0.2-0.2C120.8,49.4,120.9,49.5,121,49.5z M120.5,49.2c0.1,0,0.1,0,0.2,0.1C120.6,49.3,120.5,49.2,120.5,49.2z
			 M120.3,49.2C120.3,49.2,120.3,49.2,120.3,49.2c0,0-0.1,0-0.2,0C120.1,49.2,120.2,49.2,120.3,49.2z M109.9,67c0,0,0.1,0.1,0.1,0.2
			C110,67.1,110,67.1,109.9,67z M108.6,62.9c0,0-0.1,0-0.1,0C108.5,62.9,108.6,62.8,108.6,62.9C108.6,62.8,108.6,62.9,108.6,62.9z
			 M110.9,55.6L110.9,55.6C110.9,55.6,110.9,55.6,110.9,55.6C110.9,55.6,110.9,55.6,110.9,55.6z M109.5,58.1
			C109.5,58.1,109.5,58.1,109.5,58.1C109.6,58.1,109.6,58.1,109.5,58.1C109.6,58.1,109.6,58.1,109.5,58.1z M109.7,61.9L109.7,61.9
			c0.1,0.1,0.1,0.2,0.1,0.2l0-0.1L109.7,61.9L109.7,61.9z M102.9,58.8C102.9,58.8,102.9,58.8,102.9,58.8
			C102.9,58.8,102.9,58.8,102.9,58.8z M102,64.2C102,64.2,102,64.2,102,64.2C102,64.2,102,64.2,102,64.2z M102,62.2
			C101.9,62.2,101.9,62.2,102,62.2C101.9,62.2,101.9,62.2,102,62.2z M102,68.3c-0.1,0-0.2-0.1-0.2-0.1
			C101.8,68.2,101.9,68.2,102,68.3z M102.9,68.5c-0.1,0-0.2,0-0.3,0C102.7,68.4,102.8,68.4,102.9,68.5z M102.6,65.9
			C102.6,65.9,102.6,65.9,102.6,65.9C102.6,65.9,102.5,65.9,102.6,65.9C102.5,65.9,102.6,65.9,102.6,65.9z M102.4,68.4
			c-0.1,0-0.2,0-0.3-0.1C102.2,68.4,102.3,68.4,102.4,68.4z M102.8,58.3c-0.1,0-0.1,0-0.2-0.1C102.7,58.2,102.7,58.3,102.8,58.3z
			 M102.6,58.2c-0.1-0.1-0.1-0.1-0.2-0.2C102.5,58,102.5,58.1,102.6,58.2z M101.9,57.4C101.9,57.4,101.9,57.4,101.9,57.4
			c-0.1,0-0.2,0-0.2,0C101.7,57.4,101.8,57.4,101.9,57.4z M100.1,59.8C100.1,59.8,100.1,59.8,100.1,59.8
			C100.1,59.8,100.1,59.8,100.1,59.8z M96.5,68.8C96.6,68.8,96.6,68.8,96.5,68.8C96.6,68.8,96.6,68.8,96.5,68.8z M96.8,64.1
			C96.8,64.1,96.8,64.2,96.8,64.1C96.8,64.1,96.8,64.1,96.8,64.1C96.8,64.1,96.8,64.1,96.8,64.1z M92.6,66.8
			C92.5,66.8,92.5,66.8,92.6,66.8C92.5,66.8,92.5,66.8,92.6,66.8z M93.1,65.3C93.1,65.3,93.1,65.3,93.1,65.3
			C93.1,65.3,93.1,65.3,93.1,65.3C93.1,65.3,93.1,65.3,93.1,65.3z M93.2,61L93.2,61C93.3,61,93.3,61,93.2,61
			C93.3,61,93.3,61,93.2,61z M92.7,73.4c-0.1,0-0.2,0-0.3,0C92.5,73.4,92.6,73.4,92.7,73.4z M92.2,73.4c-0.1,0-0.2-0.1-0.2-0.1
			C92,73.3,92.1,73.3,92.2,73.4z M93.4,61.2c0-0.1,0-0.1-0.1-0.1C93.4,61.1,93.4,61.1,93.4,61.2z M93.3,60.9c0-0.1-0.1-0.1-0.1-0.1
			C93.2,60.8,93.2,60.8,93.3,60.9z M93,60.7C93,60.7,93,60.7,93,60.7c0.1,0,0.1,0,0.1,0C93.1,60.7,93,60.7,93,60.7
			c-0.1-0.1-0.1-0.1-0.2-0.2C92.9,60.6,92.9,60.6,93,60.7z M92.8,60.5C92.8,60.4,92.7,60.4,92.8,60.5C92.7,60.4,92.8,60.4,92.8,60.5
			z M92.5,60.3C92.6,60.3,92.6,60.3,92.5,60.3C92.6,60.3,92.5,60.3,92.5,60.3C92.5,60.3,92.5,60.3,92.5,60.3z M92.7,60.3
			C92.7,60.3,92.6,60.3,92.7,60.3C92.6,60.3,92.7,60.3,92.7,60.3z M87.4,61.3c0.1,0.1,0.1,0.3,0.2,0.4
			C87.5,61.6,87.5,61.4,87.4,61.3z M87.3,61.2c0-0.1-0.1-0.2-0.1-0.2C87.2,61,87.3,61.1,87.3,61.2z M87.1,60.8
			c0-0.1-0.1-0.1-0.1-0.2C87,60.7,87,60.7,87.1,60.8z M86.9,60.5c0-0.1-0.1-0.1-0.1-0.1C86.8,60.4,86.8,60.4,86.9,60.5z M86.7,60.2
			c0,0-0.1-0.1-0.1-0.1C86.6,60.2,86.6,60.2,86.7,60.2z M86.4,68.6C86.4,68.6,86.4,68.6,86.4,68.6C86.4,68.6,86.4,68.6,86.4,68.6
			C86.4,68.6,86.4,68.6,86.4,68.6z M84,72.4C84,72.4,84,72.4,84,72.4C84,72.4,84,72.4,84,72.4z M85.4,65.5
			C85.4,65.5,85.5,65.5,85.4,65.5C85.5,65.5,85.4,65.5,85.4,65.5z M85.7,70C85.6,70,85.6,70,85.7,70C85.6,70,85.6,70,85.7,70
			C85.6,70,85.7,70,85.7,70z M86.2,59.9c0,0,0.1,0,0.1,0C86.3,60,86.2,60,86.2,59.9z M86.5,60.1c0,0-0.1,0-0.1-0.1
			C86.4,60,86.4,60.1,86.5,60.1z M86.1,59.9C86.1,59.9,86.1,59.9,86.1,59.9c0,0-0.1,0-0.1,0C86,59.9,86,59.9,86.1,59.9z M85.1,60.1
			C85.1,60.1,85.1,60.1,85.1,60.1C85.1,60.1,85.1,60.1,85.1,60.1z M85.6,60.1c0,0-0.1,0-0.1,0C85.5,60.1,85.6,60.1,85.6,60.1
			C85.6,60.1,85.6,60.1,85.6,60.1z M84.9,60.5c-0.1,0-0.2,0-0.3,0C84.8,60.5,84.9,60.5,84.9,60.5z M84.5,61
			C84.5,60.9,84.4,60.9,84.5,61C84.4,60.9,84.5,60.9,84.5,61z M78.6,70.4C78.6,70.4,78.6,70.4,78.6,70.4
			C78.6,70.4,78.6,70.4,78.6,70.4z M77.5,72.3C77.6,72.3,77.6,72.4,77.5,72.3C77.5,72.3,77.5,72.3,77.5,72.3
			C77.5,72.3,77.5,72.3,77.5,72.3z M77.7,70.3C77.7,70.3,77.7,70.3,77.7,70.3C77.7,70.3,77.7,70.3,77.7,70.3z M78.1,68.4
			C78.1,68.4,78.1,68.5,78.1,68.4C78.1,68.5,78.1,68.4,78.1,68.4z M78,68.4C78,68.4,78,68.4,78,68.4C78,68.4,78,68.4,78,68.4
			C78,68.4,78,68.4,78,68.4z M78.1,69.9c0,0-0.1,0-0.1,0c0,0,0,0,0,0C78,70,78.1,70,78.1,69.9z M77.6,71.1
			C77.6,71.1,77.6,71.1,77.6,71.1C77.6,71.1,77.6,71.1,77.6,71.1z M81.1,63.5C81.1,63.5,81.1,63.5,81.1,63.5
			C81.1,63.5,81.1,63.5,81.1,63.5z M82.5,61.8C82.5,61.8,82.5,61.8,82.5,61.8C82.5,61.8,82.5,61.8,82.5,61.8
			C82.5,61.8,82.5,61.8,82.5,61.8z M82.4,61.8C82.4,61.8,82.4,61.7,82.4,61.8C82.4,61.7,82.4,61.8,82.4,61.8z M76.9,72.9
			C77,72.9,77,72.9,76.9,72.9C77,72.9,77,72.9,76.9,72.9z M73.1,96C73.1,96,73.1,96,73.1,96C73.1,96,73,96,73.1,96
			C73,96,73,96,73.1,96z M71.9,71C71.9,71,71.9,71,71.9,71C71.9,71,71.9,71,71.9,71z M73.3,70.5C73.3,70.5,73.3,70.5,73.3,70.5
			C73.3,70.5,73.3,70.5,73.3,70.5z M73.1,70.4C73.1,70.4,73.1,70.4,73.1,70.4C73.1,70.4,73.1,70.4,73.1,70.4
			C73.1,70.4,73.1,70.4,73.1,70.4z M72.3,70.3C72.3,70.3,72.2,70.3,72.3,70.3C72.2,70.3,72.3,70.3,72.3,70.3z M74.4,85.9
			C74.3,85.8,74.3,85.8,74.4,85.9C74.3,85.8,74.3,85.8,74.4,85.9z M74,65.6C74,65.6,74,65.6,74,65.6C74,65.6,74,65.6,74,65.6
			C74,65.6,74,65.6,74,65.6z M73.1,95.2C73.1,95.2,73.1,95.2,73.1,95.2C73.1,95.2,73.1,95.2,73.1,95.2z M76.3,74.7
			C76.2,74.7,76.2,74.7,76.3,74.7C76.2,74.7,76.2,74.7,76.3,74.7z M76.3,73.8C76.3,73.8,76.4,73.8,76.3,73.8
			C76.4,73.8,76.3,73.8,76.3,73.8z M76.4,69.9c0-0.1,0-0.2,0-0.2C76.4,69.7,76.4,69.8,76.4,69.9z M76.4,69.2L76.4,69.2L76.4,69.2
			C76.4,69.2,76.4,69.2,76.4,69.2z M65.3,71.9C65.4,71.9,65.4,71.9,65.3,71.9C65.4,71.9,65.4,71.9,65.3,71.9z M64.9,69.7
			c0.1,0,0.1,0.1,0.2,0.1C65,69.8,64.9,69.7,64.9,69.7z M64.6,69.5c0,0,0.1,0,0.1,0.1C64.7,69.6,64.7,69.6,64.6,69.5z M65,80
			c-0.2,0-0.3-0.1-0.5-0.1C64.7,79.9,64.8,80,65,80z M65.2,69.9c0.1,0.1,0.3,0.2,0.4,0.3C65.4,70.1,65.3,70,65.2,69.9z M64.5,69.5
			C64.5,69.5,64.5,69.5,64.5,69.5C64.5,69.5,64.5,69.5,64.5,69.5C64.4,69.5,64.4,69.5,64.5,69.5z M64.5,79.8
			c-0.1-0.1-0.3-0.1-0.4-0.2C64.2,79.7,64.4,79.8,64.5,79.8z M63.6,79.1c-0.1-0.1-0.1-0.2-0.2-0.3C63.5,78.9,63.5,79,63.6,79.1z
			 M56.5,71.7C56.5,71.7,56.6,71.7,56.5,71.7C56.5,71.7,56.5,71.7,56.5,71.7C56.5,71.7,56.5,71.7,56.5,71.7z M54,79.4
			C54.1,79.4,54.1,79.5,54,79.4C54,79.5,54,79.4,54,79.4C54,79.5,54,79.4,54,79.4z M53.8,81.6C53.8,81.6,53.7,81.6,53.8,81.6
			C53.7,81.6,53.8,81.6,53.8,81.6z M53.6,81.6C53.7,81.6,53.7,81.6,53.6,81.6C53.7,81.6,53.6,81.5,53.6,81.6
			C53.6,81.6,53.6,81.6,53.6,81.6z M53.6,81.4C53.6,81.4,53.7,81.4,53.6,81.4C53.7,81.4,53.6,81.4,53.6,81.4z M53.7,81.8
			C53.7,81.8,53.7,81.8,53.7,81.8C53.7,81.8,53.7,81.8,53.7,81.8z M54.9,75.5C54.9,75.5,54.9,75.5,54.9,75.5
			C54.9,75.5,54.9,75.5,54.9,75.5z M53.7,85c0,0-0.1,0-0.1,0C53.6,85,53.6,85,53.7,85z M54.1,79.5c0,0,0.1,0.1,0.1,0.1
			C54.2,79.5,54.1,79.5,54.1,79.5z M56.6,71.7c0,0,0.1,0.1,0.1,0.1C56.7,71.8,56.6,71.7,56.6,71.7z M62.3,65.6c-0.1,0-0.2,0-0.4,0
			C62,65.5,62.2,65.6,62.3,65.6z M61.6,65.5c0,0-0.1,0-0.1,0C61.6,65.6,61.6,65.6,61.6,65.5z M62.4,65.6c0.2,0,0.3,0.1,0.5,0.2
			C62.8,65.7,62.6,65.7,62.4,65.6z M52.7,84.3c0,0,0.1,0.1,0.1,0.1C52.7,84.4,52.7,84.3,52.7,84.3z M53.1,84.7
			C53.1,84.7,53.1,84.7,53.1,84.7C53.1,84.7,53.1,84.7,53.1,84.7z M54.2,85C54.2,85,54.2,85,54.2,85C54.2,85,54.2,85,54.2,85
			C54.2,85,54.2,85,54.2,85z M54.5,85c0,0,0.1,0,0.1,0C54.6,85,54.6,85,54.5,85z M63,77.9c-0.1-0.2-0.2-0.5-0.2-0.7
			C62.8,77.5,62.9,77.7,63,77.9z M63.3,78.6c-0.1-0.1-0.1-0.3-0.2-0.4C63.2,78.3,63.2,78.4,63.3,78.6z M63.7,79.2
			c0.1,0.1,0.2,0.2,0.3,0.3C63.9,79.4,63.8,79.3,63.7,79.2z M65.4,80c-0.1,0-0.2,0-0.2,0c0.1,0,0.2,0,0.4,0C65.5,80,65.4,80,65.4,80
			z M65.6,80c0.2,0,0.3,0,0.5-0.1C66,80,65.8,80,65.6,80z M69.8,99.6C69.8,99.6,69.8,99.6,69.8,99.6C69.8,99.6,69.8,99.6,69.8,99.6z
			 M69.9,100.6C69.9,100.5,69.9,100.5,69.9,100.6C69.9,100.5,69.9,100.5,69.9,100.6z M69.9,100.6C70,100.6,70,100.6,69.9,100.6
			C70,100.6,70,100.6,69.9,100.6z M70.1,100.8C70.1,100.8,70.1,100.8,70.1,100.8C70.1,100.8,70.1,100.8,70.1,100.8z M73.1,96
			C73.1,96,73.2,96,73.1,96C73.2,96,73.1,96,73.1,96z M79.1,69C79.1,69,79.2,69,79.1,69C79.2,69,79.1,69,79.1,69z M83.2,73.3
			C83.2,73.3,83.2,73.3,83.2,73.3C83.2,73.3,83.2,73.3,83.2,73.3z M85.7,70C85.7,70,85.7,70,85.7,70C85.7,70,85.7,70,85.7,70z
			 M86.5,68.6C86.5,68.6,86.5,68.6,86.5,68.6C86.5,68.6,86.5,68.6,86.5,68.6z M91.9,73.2c-0.1-0.1-0.2-0.1-0.2-0.2
			C91.7,73.1,91.8,73.2,91.9,73.2z M93.1,73.5c-0.1,0-0.1,0-0.2,0c0.1,0,0.3,0,0.4,0C93.2,73.5,93.2,73.5,93.1,73.5z M100.6,66.7
			c0.1,0.2,0.1,0.3,0.2,0.4C100.7,67,100.6,66.9,100.6,66.7z M100.8,67.3c0,0.1,0.1,0.2,0.2,0.3C100.9,67.4,100.9,67.4,100.8,67.3z
			 M101.1,67.6c0.1,0.1,0.1,0.1,0.2,0.2C101.2,67.8,101.1,67.7,101.1,67.6z M101.6,68.1c-0.1,0-0.1-0.1-0.2-0.1
			C101.4,68,101.5,68,101.6,68.1z M103.1,68.5C103.1,68.5,103.1,68.5,103.1,68.5c0.2,0,0.3,0,0.5,0
			C103.5,68.5,103.3,68.5,103.1,68.5z M106.3,65.7C106.3,65.7,106.4,65.7,106.3,65.7C106.4,65.7,106.3,65.7,106.3,65.7z M106.6,65.6
			c0.1,0,0.1,0,0.2,0C106.7,65.6,106.6,65.6,106.6,65.6z M107.4,64.3C107.4,64.3,107.4,64.4,107.4,64.3
			C107.4,64.4,107.4,64.3,107.4,64.3z M107.5,64.4C107.5,64.4,107.5,64.4,107.5,64.4C107.5,64.4,107.5,64.4,107.5,64.4
			C107.5,64.4,107.5,64.4,107.5,64.4z M107.8,64.3C107.8,64.3,107.8,64.3,107.8,64.3C107.8,64.3,107.8,64.3,107.8,64.3
			C107.8,64.3,107.8,64.3,107.8,64.3z M109.6,62.4c0-0.1,0-0.2,0-0.2l0.1-0.1c0,0.1,0,0.3-0.1,0.4L109.6,62.4z M109.7,66.9
			c0.1,0,0.1,0,0.2,0.1C109.9,67,109.8,66.9,109.7,66.9z M126.9,61.9c0,0,0.1,0.1,0.1,0.1C127,62,127,62,126.9,61.9z M128.7,62.8
			c0.1,0,0.2,0,0.3,0C128.9,62.8,128.8,62.8,128.7,62.8C128.7,62.8,128.7,62.8,128.7,62.8z M129.2,62.8c0.2,0,0.3-0.1,0.5-0.1
			C129.5,62.7,129.4,62.7,129.2,62.8z"/>
	</g>
</g>
</svg>
